<svg width="70" height="19" viewBox="0 0 70 19" fill="none" xmlns="http://www.w3.org/2000/svg">
<path d="M13.056 1.248V3.96H8.592V18H5.232V3.96H0.768V1.248H13.056ZM14.1636 11.304C14.1636 9.96 14.4276 8.768 14.9556 7.728C15.4996 6.688 16.2276 5.888 17.1396 5.328C18.0676 4.768 19.0996 4.488 20.2356 4.488C21.2276 4.488 22.0916 4.688 22.8276 5.088C23.5796 5.488 24.1796 5.992 24.6276 6.6V4.704H28.0116V18H24.6276V16.056C24.1956 16.68 23.5956 17.2 22.8276 17.616C22.0756 18.016 21.2036 18.216 20.2116 18.216C19.0916 18.216 18.0676 17.928 17.1396 17.352C16.2276 16.776 15.4996 15.968 14.9556 14.928C14.4276 13.872 14.1636 12.664 14.1636 11.304ZM24.6276 11.352C24.6276 10.536 24.4676 9.84 24.1476 9.264C23.8276 8.672 23.3956 8.224 22.8516 7.92C22.3076 7.6 21.7236 7.44 21.0996 7.44C20.4756 7.44 19.8996 7.592 19.3716 7.896C18.8436 8.2 18.4116 8.648 18.0756 9.24C17.7556 9.816 17.5956 10.504 17.5956 11.304C17.5956 12.104 17.7556 12.808 18.0756 13.416C18.4116 14.008 18.8436 14.464 19.3716 14.784C19.9156 15.104 20.4916 15.264 21.0996 15.264C21.7236 15.264 22.3076 15.112 22.8516 14.808C23.3956 14.488 23.8276 14.04 24.1476 13.464C24.4676 12.872 24.6276 12.168 24.6276 11.352ZM35.9012 18.216C34.8132 18.216 33.8372 18.024 32.9732 17.64C32.1092 17.24 31.4212 16.704 30.9092 16.032C30.4132 15.36 30.1412 14.616 30.0932 13.8H33.4772C33.5412 14.312 33.7892 14.736 34.2212 15.072C34.6692 15.408 35.2212 15.576 35.8772 15.576C36.5172 15.576 37.0132 15.448 37.3652 15.192C37.7332 14.936 37.9172 14.608 37.9172 14.208C37.9172 13.776 37.6932 13.456 37.2452 13.248C36.8132 13.024 36.1172 12.784 35.1572 12.528C34.1652 12.288 33.3492 12.04 32.7092 11.784C32.0852 11.528 31.5412 11.136 31.0772 10.608C30.6292 10.08 30.4052 9.368 30.4052 8.472C30.4052 7.736 30.6132 7.064 31.0292 6.456C31.4612 5.848 32.0692 5.368 32.8532 5.016C33.6532 4.664 34.5892 4.488 35.6612 4.488C37.2452 4.488 38.5092 4.888 39.4532 5.688C40.3972 6.472 40.9172 7.536 41.0132 8.88H37.7972C37.7492 8.352 37.5252 7.936 37.1252 7.632C36.7412 7.312 36.2212 7.152 35.5652 7.152C34.9572 7.152 34.4852 7.264 34.1492 7.488C33.8292 7.712 33.6692 8.024 33.6692 8.424C33.6692 8.872 33.8932 9.216 34.3412 9.456C34.7892 9.68 35.4852 9.912 36.4292 10.152C37.3892 10.392 38.1812 10.64 38.8052 10.896C39.4292 11.152 39.9652 11.552 40.4132 12.096C40.8772 12.624 41.1172 13.328 41.1332 14.208C41.1332 14.976 40.9172 15.664 40.4852 16.272C40.0692 16.88 39.4612 17.36 38.6612 17.712C37.8772 18.048 36.9572 18.216 35.9012 18.216ZM51.2833 18L46.7713 12.336V18H43.4113V0.24H46.7713V10.344L51.2353 4.704H55.6033L49.7473 11.376L55.6513 18H51.2833ZM62.8509 18.216C61.5709 18.216 60.4189 17.936 59.3949 17.376C58.3709 16.8 57.5629 15.992 56.9709 14.952C56.3949 13.912 56.1069 12.712 56.1069 11.352C56.1069 9.992 56.4029 8.792 56.9949 7.752C57.6029 6.712 58.4269 5.912 59.4669 5.352C60.5069 4.776 61.6669 4.488 62.9469 4.488C64.2269 4.488 65.3869 4.776 66.4269 5.352C67.4669 5.912 68.2829 6.712 68.8749 7.752C69.4829 8.792 69.7869 9.992 69.7869 11.352C69.7869 12.712 69.4749 13.912 68.8509 14.952C68.2429 15.992 67.4109 16.8 66.3549 17.376C65.3149 17.936 64.1469 18.216 62.8509 18.216ZM62.8509 15.288C63.4589 15.288 64.0269 15.144 64.5549 14.856C65.0989 14.552 65.5309 14.104 65.8509 13.512C66.1709 12.92 66.3309 12.2 66.3309 11.352C66.3309 10.088 65.9949 9.12 65.3229 8.448C64.6669 7.76 63.8589 7.416 62.8989 7.416C61.9389 7.416 61.1309 7.76 60.4749 8.448C59.8349 9.12 59.5149 10.088 59.5149 11.352C59.5149 12.616 59.8269 13.592 60.4509 14.28C61.0909 14.952 61.8909 15.288 62.8509 15.288Z" fill="white"/>
</svg>
