<svg width="584" height="520" viewBox="0 0 584 520" fill="none" xmlns="http://www.w3.org/2000/svg">
<g clip-path="url(#clip0_1001_2095)">
<path d="M37.6843 437.58H25.2227" stroke="#263238" stroke-width="1.11" stroke-miterlimit="10"/>
<path d="M543.014 437.58H57.4297" stroke="#263238" stroke-width="1.11" stroke-miterlimit="10"/>
<path d="M360.315 489.736C383.124 489.736 401.614 484.65 401.614 478.376C401.614 472.101 383.124 467.015 360.315 467.015C337.507 467.015 319.017 472.101 319.017 478.376C319.017 484.65 337.507 489.736 360.315 489.736Z" fill="#263238"/>
<path d="M146.863 504.182C103.879 504.182 97.5327 497.972 96.9076 492.957C96.7657 491.913 96.8686 490.85 97.2082 489.852C97.5478 488.854 98.1149 487.949 98.8645 487.209C110.443 475.06 177.168 480.197 269.496 487.304C282.379 488.296 295.696 489.315 309.354 490.334C402.647 497.265 440.208 496.368 447.968 486.991C449.544 485.075 449.871 482.683 449.001 479.449C445.305 465.928 395.893 465.86 377.18 466.92C376.752 466.942 376.332 466.795 376.011 466.51C375.691 466.225 375.496 465.826 375.467 465.398C375.455 465.186 375.484 464.974 375.554 464.773C375.623 464.573 375.732 464.389 375.874 464.231C376.015 464.073 376.187 463.944 376.378 463.853C376.57 463.762 376.778 463.709 376.99 463.699C384.151 463.278 447.071 460.111 452.113 478.647C453.268 482.914 452.738 486.325 450.455 489.098C441.744 499.67 406.085 500.798 309.123 493.596C295.452 492.577 282.134 491.557 269.251 490.565C181.245 483.771 111.72 478.43 101.202 489.478C100.786 489.873 100.47 490.361 100.281 490.902C100.092 491.444 100.035 492.022 100.115 492.59C100.509 495.797 108.269 502.959 170.781 500.472C205.747 499.113 240.876 495.267 241.229 495.227C241.638 495.21 242.039 495.349 242.349 495.616C242.66 495.883 242.857 496.258 242.902 496.665C242.947 497.072 242.836 497.481 242.591 497.809C242.346 498.138 241.986 498.361 241.583 498.434C241.229 498.434 205.991 502.293 170.917 503.693C161.893 504.019 153.902 504.182 146.863 504.182Z" fill="white" stroke="#263238" stroke-width="1.11" stroke-miterlimit="10"/>
<path d="M355.987 487.07C382.166 480.988 398.458 454.835 392.376 428.656C386.293 402.477 360.14 386.185 333.96 392.268C307.781 398.35 291.489 424.503 297.572 450.682C303.654 476.861 329.808 493.153 355.987 487.07Z" fill="white"/>
<mask id="mask0_1001_2095" style="mask-type:luminance" maskUnits="userSpaceOnUse" x="296" y="390" width="98" height="99">
<path d="M355.987 487.07C382.166 480.988 398.458 454.835 392.376 428.656C386.293 402.477 360.14 386.185 333.96 392.268C307.781 398.35 291.489 424.503 297.572 450.682C303.654 476.861 329.808 493.153 355.987 487.07Z" fill="white"/>
</mask>
<g mask="url(#mask0_1001_2095)">
<path d="M344.958 488.35C353.814 488.356 362.504 485.944 370.09 481.375C377.676 476.806 383.872 470.253 388.008 462.423C392.144 454.592 394.065 445.781 393.562 436.939C393.06 428.098 390.153 419.561 385.156 412.249C384.626 433.449 372.926 464.745 312.071 475.508C321.03 483.771 332.771 488.356 344.958 488.35Z" fill="#60E5AE"/>
<path opacity="0.3" d="M344.958 488.35C353.814 488.356 362.504 485.944 370.09 481.375C377.676 476.806 383.872 470.253 388.008 462.423C392.144 454.592 394.065 445.781 393.562 436.939C393.06 428.098 390.153 419.561 385.156 412.249C384.626 433.449 372.926 464.745 312.071 475.508C321.03 483.771 332.771 488.356 344.958 488.35Z" fill="white"/>
<path d="M368.903 458.766C360.225 450.323 349.687 444.035 338.137 440.407M368.903 458.766H371.485C377.213 453.088 382.145 446.661 386.149 439.659C363.359 415.579 341.194 418.038 341.194 418.038C341.194 418.038 363.427 415.579 386.217 439.686C387.467 437.444 388.513 435.338 389.369 433.394C379.884 420.104 363.549 411.04 354.784 409.681L352.745 409.192M368.903 458.766C348.886 458.481 333.666 455.382 322.291 451.237C323.025 420.498 333.992 400.019 339.727 391.349C341.554 391.137 343.391 391.028 345.23 391.023C346.902 391.023 348.533 391.118 350.163 391.267M352.745 409.192C349.604 408.621 346.389 408.575 343.233 409.056M352.745 409.192L358.548 392.884C355.806 392.101 353 391.559 350.163 391.267M350.163 391.267C346.399 397.342 336.71 416.747 336.71 455.246M379.897 448.859C360.519 429.97 339.129 428.978 339.129 428.978" stroke="#263238" stroke-width="1.11" stroke-linecap="round" stroke-linejoin="round"/>
<path d="M322.236 451.319C322.97 420.58 333.937 400.1 339.672 391.43C335.185 391.934 330.789 393.059 326.612 394.773C316.313 409.883 310.495 427.596 309.829 445.87C313.82 448 317.968 449.822 322.236 451.319Z" stroke="#263238" stroke-width="1.11" stroke-linecap="round" stroke-linejoin="round"/>
<path d="M326.612 394.733C318.208 398.197 310.94 403.942 305.628 411.319C300.317 418.696 297.173 427.41 296.552 436.479C300.553 440.159 305.016 443.301 309.829 445.829C310.495 427.555 316.313 409.842 326.612 394.733Z" stroke="#263238" stroke-width="1.11" stroke-linecap="round" stroke-linejoin="round"/>
<path d="M389.301 433.394C390.36 431.054 391.268 428.649 392.019 426.192C389.987 419.261 386.446 412.866 381.65 407.466L377.886 420.022L381.582 407.466C378.58 404.099 375.128 401.163 371.322 398.741L367.177 414.247L371.349 398.809C367.37 396.264 363.038 394.318 358.493 393.034L352.69 409.341C361.578 410.619 375.317 415.851 389.301 433.394Z" stroke="#263238" stroke-width="1.11" stroke-linecap="round" stroke-linejoin="round"/>
<path d="M347.649 477.261C353.31 473.837 358.711 469.999 363.807 465.778C366.592 463.441 371.702 458.807 371.865 458.807C371.702 458.807 381.46 447.799 384.694 442.051C384.694 442.133 386.134 439.768 386.053 439.686C385.971 439.605 387.221 437.634 387.14 437.553C387.932 436.221 388.623 434.831 389.206 433.395C390.265 431.054 391.173 428.649 391.923 426.192C393.221 430.633 393.88 435.236 393.88 439.863C393.88 440.624 393.88 441.276 393.88 441.983C373.333 470.833 357.501 483.2 347.553 488.622C346.738 488.622 345.923 488.622 345.094 488.622C340.111 488.623 335.157 487.862 330.403 486.366C336.323 483.666 342.081 480.626 347.649 477.261ZM347.649 477.261H348.002" stroke="#263238" stroke-width="1.11" stroke-linecap="round" stroke-linejoin="round"/>
<path d="M393.881 441.983C373.334 470.833 357.502 483.2 347.636 488.5C359.75 487.889 371.201 482.785 379.753 474.183C388.305 465.581 393.342 454.1 393.881 441.983Z" stroke="#263238" stroke-width="1.11" stroke-linecap="round" stroke-linejoin="round"/>
<path d="M307.07 470.249C313.1 477.829 321.252 483.44 330.485 486.366C336.404 483.666 342.162 480.626 347.73 477.261C336.125 479.408 317.969 474.081 307.07 470.249Z" stroke="#263238" stroke-width="1.11" stroke-linecap="round" stroke-linejoin="round"/>
<path d="M347.73 477.261C353.392 473.837 358.793 469.999 363.888 465.778C328.841 469.366 307.22 458.508 298.033 452.338C299.767 458.872 302.845 464.972 307.07 470.249C317.969 474.081 336.125 479.408 347.73 477.261Z" stroke="#263238" stroke-width="1.11" stroke-linecap="round" stroke-linejoin="round"/>
<path d="M368.903 458.793H371.485C369.188 461.103 366.674 463.441 363.888 465.778C328.841 469.366 307.22 458.508 298.033 452.365C296.961 448.294 296.417 444.101 296.416 439.89C296.416 438.762 296.47 437.662 296.552 436.547C299.514 439.333 305.535 445.557 322.236 451.346C333.665 455.409 348.886 458.508 368.903 458.793ZM368.903 458.793C369.093 458.97 369.284 459.147 369.46 459.337" stroke="#263238" stroke-width="1.11" stroke-linecap="round" stroke-linejoin="round"/>
</g>
<path d="M355.987 487.07C382.166 480.988 398.458 454.835 392.376 428.656C386.293 402.477 360.14 386.185 333.96 392.268C307.781 398.35 291.489 424.503 297.572 450.682C303.654 476.861 329.808 493.153 355.987 487.07Z" stroke="#263238" stroke-width="1.11" stroke-linecap="round" stroke-linejoin="round"/>
<path d="M434.596 356.519C434.596 356.519 431.267 345.715 421.564 341.829C414.769 339.111 407.064 339.845 400.065 341.054C387.046 343.324 375.685 348.501 363.373 352.918C363.373 352.918 368.646 350.975 390.267 361.52C398.23 365.393 407.335 368.41 416.44 368.206C423.738 368.043 434.963 365.95 434.596 356.519Z" fill="#60E5AE"/>
<path d="M435.765 324.76C435.765 324.76 435.765 313.44 427.611 306.931C421.93 302.392 414.293 300.829 407.226 299.973C394.112 298.383 381.732 300.055 368.632 300.721C368.632 300.721 374.244 300.395 391.897 316.729C398.407 322.736 406.248 328.253 415 330.685C422.039 332.642 433.373 333.893 435.765 324.76Z" fill="#60E5AE"/>
<path d="M458.066 366.765C458.066 366.765 449.246 359.685 449.219 349.235C449.219 341.965 452.711 335.02 456.421 328.973C463.325 317.694 472.321 309.051 480.991 299.199C480.991 299.199 477.241 303.384 479.062 327.37C479.741 336.203 479.17 345.783 475.623 354.168C472.838 360.908 466.763 370.57 458.066 366.765Z" fill="#60E5AE"/>
<path d="M489.322 384.133C489.322 384.133 488.071 372.894 495.437 365.474C500.547 360.324 507.953 357.878 514.843 356.22C527.699 353.122 540.174 353.353 553.261 352.497C553.261 352.497 547.662 352.809 532.006 371.073C526.244 377.868 519.083 384.187 510.644 387.625C503.917 390.384 492.8 392.925 489.322 384.133Z" fill="#60E5AE"/>
<path d="M487.324 344.057C487.324 344.057 476.113 342.522 470.731 333.566C466.981 327.342 466.424 319.569 466.492 312.476C466.627 299.267 469.916 287.213 472.294 274.316C472.294 274.316 471.221 279.834 485.109 299.47C490.219 306.714 494.622 315.221 495.981 324.244C496.946 331.487 496.688 342.889 487.324 344.057Z" fill="#60E5AE"/>
<path d="M519.585 323.931C519.585 323.931 527.644 331.868 538.026 330.726C545.242 329.897 551.738 325.589 557.31 321.214C567.693 313.06 575.235 303.085 584 293.342C584 293.342 580.29 297.541 556.25 298.533C547.403 298.9 537.958 300.571 530.036 305.083C523.676 308.643 514.802 315.805 519.585 323.931Z" fill="#60E5AE"/>
<path d="M510.25 316.09C510.25 316.09 521.502 317.218 528.84 309.785C533.95 304.607 536.314 297.187 537.904 290.27C540.867 277.401 540.514 264.913 541.22 251.826C541.22 251.826 540.976 257.425 522.861 273.27C516.202 279.1 509.883 286.33 506.553 294.796C503.849 301.604 501.416 312.747 510.25 316.09Z" fill="#60E5AE"/>
<path d="M470.051 425.635L450.632 377.814L428.209 322.532" stroke="#263238" stroke-width="1.11" stroke-linecap="round" stroke-linejoin="round"/>
<path d="M474.536 417.413L493.969 350.92L514.884 309.826" stroke="#263238" stroke-width="1.11" stroke-linecap="round" stroke-linejoin="round"/>
<path d="M482.011 391.267L501.444 380.056" stroke="#263238" stroke-width="1.11" stroke-linecap="round" stroke-linejoin="round"/>
<path d="M493.969 350.92L484.253 329.245" stroke="#263238" stroke-width="1.11" stroke-linecap="round" stroke-linejoin="round"/>
<path d="M506.118 329.354L529.832 318.795" stroke="#263238" stroke-width="1.11" stroke-linecap="round" stroke-linejoin="round"/>
<path d="M454.369 386.783L462.591 353.91" stroke="#263238" stroke-width="1.11" stroke-linecap="round" stroke-linejoin="round"/>
<path d="M443.47 361.792L424.472 351.668" stroke="#263238" stroke-width="1.11" stroke-linecap="round" stroke-linejoin="round"/>
<path d="M480.026 449.539H463.827C461.179 449.538 458.614 448.613 456.575 446.923C454.536 445.234 453.15 442.886 452.657 440.284L446.895 409.939H496.959L491.21 440.284C490.714 442.887 489.325 445.235 487.284 446.925C485.242 448.614 482.676 449.538 480.026 449.539Z" fill="#263238" stroke="#263238" stroke-width="1.11" stroke-linecap="round" stroke-linejoin="round"/>
<g filter="url(#filter0_d_1001_2095)">
<path d="M29.748 258.509C31.5788 258.509 32.8568 259.138 33.6885 260.161C34.5332 261.199 34.9687 262.707 34.9688 264.545V277.754C34.9688 279.568 34.5491 281.077 33.7119 282.121C32.8887 283.149 31.6119 283.791 29.748 283.791C27.8816 283.791 26.6247 283.161 25.8203 282.145C25.0004 281.109 24.5947 279.601 24.5947 277.754V264.545C24.5948 262.731 25.0155 261.222 25.8457 260.177C26.6617 259.15 27.921 258.509 29.748 258.509ZM29.748 259.058C28.1482 259.058 26.995 259.631 26.2637 260.652C25.5541 261.642 25.293 262.985 25.293 264.437V277.864C25.293 279.324 25.5806 280.665 26.3018 281.653C27.0421 282.667 28.1911 283.242 29.748 283.242C31.3033 283.242 32.4784 282.669 33.249 281.661C34.0036 280.675 34.3251 279.333 34.3252 277.864V264.437C34.3252 262.975 34.0304 261.631 33.2871 260.642C32.5255 259.629 31.3463 259.058 29.748 259.058Z" fill="#263238" stroke="black"/>
<path d="M43.7998 258.509C45.6305 258.509 46.9085 259.138 47.7402 260.161C48.5849 261.199 49.0204 262.707 49.0205 264.545V277.754C49.0205 279.568 48.6008 281.077 47.7637 282.121C46.9405 283.149 45.6637 283.791 43.7998 283.791C41.9333 283.791 40.6764 283.161 39.8721 282.145C39.0522 281.109 38.6465 279.601 38.6465 277.754V264.545C38.6465 262.731 39.0673 261.222 39.8975 260.177C40.7135 259.15 41.9728 258.509 43.7998 258.509ZM43.7998 259.058C42.1999 259.058 41.0468 259.631 40.3154 260.652C39.6058 261.642 39.3447 262.985 39.3447 264.437V277.864C39.3448 279.324 39.6324 280.665 40.3535 281.653C41.0939 282.667 42.2429 283.242 43.7998 283.242C45.3551 283.242 46.5302 282.669 47.3008 281.661C48.0553 280.675 48.3769 279.333 48.377 277.864V264.437C48.3769 262.975 48.0821 261.631 47.3389 260.642C46.5772 259.629 45.398 259.058 43.7998 259.058Z" fill="#263238" stroke="black"/>
<path d="M57.6885 258.727C59.5748 258.727 60.8001 259.315 61.5693 260.269C62.3547 261.242 62.7324 262.679 62.7324 264.505V267.318C62.7324 269.289 62.2752 270.667 61.417 271.557C60.562 272.443 59.2216 272.934 57.2529 272.934H53.5322V283.573H52.834V258.751L57.6885 258.727ZM53.5322 272.384H57.2529C58.8125 272.384 60.0451 272.03 60.876 271.163C61.7022 270.301 62.0342 269.031 62.0342 267.427V264.396C62.0342 262.956 61.7888 261.671 61.0918 260.737C60.3724 259.774 59.2423 259.275 57.6885 259.275H53.5322V272.384Z" fill="#263238" stroke="black"/>
<path d="M71.1064 258.427C72.832 258.408 74.0729 259.051 74.8955 260.094C75.7313 261.154 76.1729 262.677 76.1729 264.464V264.521H75.542V264.356C75.542 262.947 75.2767 261.628 74.584 260.649C73.8708 259.641 72.7513 259.058 71.21 259.058C69.6764 259.058 68.5529 259.614 67.833 260.602C67.1331 261.562 66.8643 262.864 66.8643 264.274C66.8643 267.704 69.4583 269.444 71.7373 271.106C74.0833 272.817 76.2001 274.492 76.2002 277.782C76.2002 279.581 75.8079 281.069 75.0039 282.097C74.2157 283.104 72.9787 283.737 71.1279 283.737C69.2765 283.737 68.0407 283.107 67.2529 282.102C66.4492 281.076 66.0566 279.589 66.0566 277.782V276.923H66.6875V277.864C66.6875 279.274 66.9608 280.585 67.6689 281.555C68.3968 282.552 69.5329 283.12 71.0879 283.12C72.639 283.12 73.7788 282.565 74.5117 281.573C75.2249 280.607 75.5009 279.295 75.501 277.864C75.501 274.459 72.9039 272.732 70.6279 271.073C68.2845 269.364 66.1652 267.674 66.165 264.356C66.165 262.483 66.5778 261.013 67.373 260.016C68.154 259.037 69.3585 258.446 71.1064 258.427Z" fill="#263238" stroke="black"/>
<path d="M80.4131 281.326V283.574H79.7549V281.326H80.4131Z" fill="#263238" stroke="black"/>
<path d="M85.0342 281.326V283.574H84.3623V281.326H85.0342Z" fill="#263238" stroke="black"/>
<path d="M89.6396 281.326V283.574H88.9277V281.326H89.6396Z" fill="#263238" stroke="black"/>
<path d="M29.5576 296.329C31.4448 296.329 32.6706 296.914 33.4395 297.864C34.2244 298.834 34.6016 300.267 34.6016 302.093V304.907C34.6015 306.877 34.1448 308.26 33.2861 309.153C32.431 310.042 31.0906 310.536 29.123 310.536H25.415V321.163H24.7031V296.34L29.5576 296.329ZM25.415 309.918H29.123C30.6824 309.918 31.9142 309.564 32.7451 308.695C33.5712 307.83 33.9033 306.557 33.9033 304.947V301.916C33.9033 300.476 33.6586 299.193 32.9609 298.263C32.241 297.303 31.1101 296.81 29.5576 296.81H25.415V309.918Z" fill="#263238" stroke="black"/>
<path d="M44.54 296.315L50.0791 321.135H49.4131L48.1455 315.798L48.0537 315.414H39.2412L39.1533 315.803L37.9502 321.135H37.4082L42.8291 296.315H44.54ZM44.0693 297.632L43.0938 297.637L39.4111 314.325L39.2764 314.932H48.0557L47.915 314.32L44.0693 297.632Z" fill="#263238" stroke="black"/>
<path d="M58.6934 296.098C60.539 296.098 61.7759 296.746 62.5664 297.774C63.3732 298.824 63.7656 300.334 63.7656 302.134V303.55H63.1074V302.025C63.1074 300.614 62.8342 299.276 62.1289 298.278C61.4038 297.252 60.2651 296.646 58.6934 296.646C57.1261 296.646 55.9895 297.236 55.2656 298.258C54.5624 299.251 54.294 300.59 54.2939 302.025V315.466C54.294 316.877 54.5672 318.202 55.2725 319.187C55.9975 320.2 57.1325 320.79 58.6934 320.79C60.2508 320.79 61.3909 320.214 62.1211 319.205C62.8313 318.224 63.1074 316.897 63.1074 315.466V309.38H59.71V308.831H63.7656V315.343C63.7656 317.149 63.3697 318.659 62.5615 319.707C61.7695 320.734 60.5325 321.38 58.6934 321.38C56.8545 321.38 55.6182 320.734 54.8262 319.707C54.0179 318.659 53.6221 317.149 53.6221 315.343V302.134C53.6221 300.334 54.0145 298.824 54.8213 297.774C55.6117 296.746 56.848 296.098 58.6934 296.098Z" fill="#263238" stroke="black"/>
<path d="M76.7979 296.315V296.864H68.3037V308.26H75.3574V308.809H68.3037V320.585H76.7979V321.135H67.6055V296.315H76.7979Z" fill="#263238" stroke="black"/>
<path d="M87.6543 296.342L95.2822 317.753L96.2529 317.585V296.342H96.8027V321.162H95.7812L87.7451 298.394L86.7734 298.562L86.8398 321.162H86.292V296.342H87.6543Z" fill="#263238" stroke="black"/>
<path d="M105.755 296.098C107.586 296.098 108.864 296.727 109.695 297.749C110.54 298.787 110.977 300.295 110.977 302.134V315.343C110.977 317.158 110.559 318.666 109.724 319.711C108.902 320.737 107.626 321.38 105.755 321.38C103.881 321.38 102.629 320.749 101.83 319.734C101.015 318.699 100.615 317.191 100.615 315.343V302.134C100.615 300.319 101.032 298.81 101.859 297.765C102.672 296.738 103.928 296.098 105.755 296.098ZM105.755 296.646C104.155 296.646 103.004 297.219 102.276 298.241C101.571 299.232 101.313 300.574 101.313 302.025V315.466C101.314 316.918 101.598 318.256 102.315 319.242C103.052 320.255 104.198 320.83 105.755 320.83C107.31 320.83 108.484 320.257 109.255 319.252C110.01 318.267 110.332 316.929 110.332 315.466V302.025C110.332 300.563 110.037 299.219 109.294 298.23C108.532 297.217 107.353 296.646 105.755 296.646Z" fill="#263238" stroke="black"/>
<path d="M125.136 296.329V296.877H119.85V321.163H119.138V296.877H113.905V296.329H125.136Z" fill="#263238" stroke="black"/>
<path d="M142.762 296.342V296.891H134.608V308.927L135.109 308.926L141.321 308.913V309.461H134.648V321.162H133.95V296.342H142.762Z" fill="#263238" stroke="black"/>
<path d="M151.389 296.098C153.219 296.098 154.497 296.727 155.329 297.749C156.174 298.787 156.609 300.295 156.609 302.134V315.343C156.609 317.157 156.19 318.665 155.353 319.71C154.529 320.737 153.253 321.38 151.389 321.38C149.522 321.38 148.265 320.749 147.461 319.733C146.641 318.697 146.235 317.189 146.235 315.343V302.134C146.235 300.32 146.656 298.811 147.486 297.766C148.302 296.738 149.562 296.098 151.389 296.098ZM151.389 296.646C149.789 296.646 148.636 297.219 147.904 298.24C147.195 299.231 146.934 300.573 146.934 302.025V315.466C146.934 316.919 147.221 318.257 147.942 319.243C148.683 320.255 149.832 320.83 151.389 320.83C152.944 320.83 154.118 320.257 154.889 319.252C155.643 318.267 155.966 316.929 155.966 315.466V302.025C155.966 300.563 155.671 299.219 154.928 298.23C154.166 297.217 152.987 296.646 151.389 296.646Z" fill="#263238" stroke="black"/>
<path d="M161.093 296.329L161.04 315.423V315.424C161.04 316.833 161.305 318.177 162 319.181C162.715 320.215 163.844 320.831 165.413 320.831C166.977 320.83 168.107 320.232 168.824 319.203C169.521 318.203 169.786 316.859 169.786 315.424V296.329H170.376V315.343C170.376 317.133 169.999 318.645 169.215 319.699C168.448 320.728 167.246 321.379 165.44 321.379C163.633 321.379 162.401 320.727 161.606 319.693C160.797 318.638 160.396 317.126 160.396 315.343V296.329H161.093Z" fill="#263238" stroke="black"/>
<path d="M175.715 296.342L183.343 317.753L184.313 317.585V296.342H184.863V321.162H183.843L175.874 298.395L174.901 298.56V321.162H174.353V296.342H175.715Z" fill="#263238" stroke="black"/>
<path d="M193.911 296.329C195.792 296.329 197.067 296.938 197.884 297.927C198.714 298.933 199.132 300.406 199.132 302.243V315.234C199.132 317.07 198.714 318.547 197.884 319.557C197.067 320.55 195.791 321.162 193.911 321.163H188.73V296.34L193.911 296.329ZM189.456 320.613H193.911C195.475 320.613 196.653 320.075 197.424 319.087C198.178 318.121 198.488 316.795 198.488 315.316V302.175C198.488 300.695 198.174 299.369 197.418 298.403C196.646 297.416 195.469 296.877 193.911 296.877H189.456V320.613Z" fill="#263238" stroke="black"/>
</g>
<path d="M258.501 385.6C228.251 385.6 210.068 358.761 203.613 335.156L203.395 334.327C203.052 333.183 202.942 331.981 203.073 330.793C203.205 329.605 203.574 328.456 204.16 327.414C204.746 326.372 205.536 325.459 206.483 324.73C207.429 324 208.513 323.469 209.67 323.169C210.827 322.868 212.032 322.803 213.214 322.979C214.397 323.155 215.531 323.567 216.55 324.192C217.569 324.816 218.452 325.64 219.145 326.613C219.839 327.586 220.329 328.689 220.586 329.857L220.749 330.468C225.655 348.433 239.014 368.967 260.445 367.785C264.474 367.642 268.428 366.655 272.052 364.887C275.676 363.12 278.888 360.612 281.481 357.525C293.236 344.044 298.496 314.731 297.327 299.946C297.216 298.997 297.298 298.036 297.567 297.12C297.837 296.203 298.288 295.35 298.894 294.612C299.5 293.874 300.249 293.266 301.096 292.823C301.943 292.381 302.87 292.114 303.822 292.038C304.774 291.962 305.732 292.079 306.638 292.382C307.544 292.685 308.38 293.167 309.095 293.8C309.811 294.432 310.391 295.203 310.802 296.065C311.213 296.928 311.446 297.864 311.487 298.818C312.846 315.275 311.052 350.648 294.867 369.198C290.724 374.076 285.617 378.043 279.866 380.849C274.114 383.656 267.844 385.241 261.45 385.505C260.458 385.573 259.466 385.6 258.501 385.6Z" fill="white"/>
<mask id="mask1_1001_2095" style="mask-type:luminance" maskUnits="userSpaceOnUse" x="203" y="292" width="109" height="94">
<path d="M258.501 385.6C228.251 385.6 210.068 358.761 203.613 335.156L203.395 334.327C203.052 333.183 202.942 331.981 203.073 330.793C203.205 329.605 203.574 328.456 204.16 327.414C204.746 326.372 205.536 325.459 206.483 324.73C207.429 324 208.513 323.469 209.67 323.169C210.827 322.868 212.032 322.803 213.214 322.979C214.397 323.155 215.531 323.567 216.55 324.192C217.569 324.816 218.452 325.64 219.145 326.613C219.839 327.586 220.329 328.689 220.586 329.857L220.749 330.468C225.655 348.433 239.014 368.967 260.445 367.785C264.474 367.642 268.428 366.655 272.052 364.887C275.676 363.12 278.888 360.612 281.481 357.525C293.236 344.044 298.496 314.731 297.327 299.946C297.216 298.997 297.298 298.036 297.567 297.12C297.837 296.203 298.288 295.35 298.894 294.612C299.5 293.874 300.249 293.266 301.096 292.823C301.943 292.381 302.87 292.114 303.822 292.038C304.774 291.962 305.732 292.079 306.638 292.382C307.544 292.685 308.38 293.167 309.095 293.8C309.811 294.432 310.391 295.203 310.802 296.065C311.213 296.928 311.446 297.864 311.487 298.818C312.846 315.275 311.052 350.648 294.867 369.198C290.724 374.076 285.617 378.043 279.866 380.849C274.114 383.656 267.844 385.241 261.45 385.505C260.458 385.573 259.466 385.6 258.501 385.6Z" fill="white"/>
</mask>
<g mask="url(#mask1_1001_2095)">
<path d="M303.836 292.295C301.959 292.448 300.219 293.339 298.998 294.774C297.778 296.208 297.176 298.069 297.327 299.946C297.897 307.162 296.932 317.83 294.432 328.484C298.003 328.333 301.574 328.793 304.991 329.843C304.183 340.067 300.592 349.875 294.609 358.204C281.413 376.536 261.627 382.393 246.23 380.192C239.34 379.213 231.431 375.599 224.799 371.889C233.816 380.682 245.907 385.611 258.501 385.628C259.466 385.628 260.458 385.628 261.45 385.546C267.844 385.282 274.114 383.697 279.865 380.89C285.616 378.083 290.724 374.116 294.867 369.239C311.052 350.689 312.792 315.316 311.487 298.859C311.42 297.924 311.168 297.012 310.747 296.175C310.325 295.337 309.742 294.592 309.03 293.982C308.319 293.371 307.493 292.908 306.602 292.619C305.71 292.329 304.77 292.219 303.836 292.295Z" fill="#60E5AE"/>
<path opacity="0.5" d="M303.836 292.295C301.959 292.448 300.219 293.339 298.998 294.774C297.778 296.208 297.176 298.069 297.327 299.946C297.897 307.162 296.932 317.83 294.432 328.484C298.003 328.333 301.574 328.793 304.991 329.843C304.183 340.067 300.592 349.875 294.609 358.204C281.413 376.536 261.627 382.393 246.23 380.192C239.34 379.213 231.431 375.599 224.799 371.889C233.816 380.682 245.907 385.611 258.501 385.628C259.466 385.628 260.458 385.628 261.45 385.546C267.844 385.282 274.114 383.697 279.865 380.89C285.616 378.083 290.724 374.116 294.867 369.239C311.052 350.689 312.792 315.316 311.487 298.859C311.42 297.924 311.168 297.012 310.747 296.175C310.325 295.337 309.742 294.592 309.03 293.982C308.319 293.371 307.493 292.908 306.602 292.619C305.71 292.329 304.77 292.219 303.836 292.295Z" fill="white"/>
</g>
<path d="M258.501 385.6C228.251 385.6 210.068 358.761 203.613 335.156L203.395 334.327C203.052 333.183 202.942 331.981 203.073 330.793C203.205 329.605 203.574 328.456 204.16 327.414C204.746 326.372 205.536 325.459 206.483 324.73C207.429 324 208.513 323.469 209.67 323.169C210.827 322.868 212.032 322.803 213.214 322.979C214.397 323.155 215.531 323.567 216.55 324.192C217.569 324.816 218.452 325.64 219.145 326.613C219.839 327.586 220.329 328.689 220.586 329.857L220.749 330.468C225.655 348.433 239.014 368.967 260.445 367.785C264.474 367.642 268.428 366.655 272.052 364.887C275.676 363.12 278.888 360.612 281.481 357.525C293.236 344.044 298.496 314.731 297.327 299.946C297.216 298.997 297.298 298.036 297.567 297.12C297.837 296.203 298.288 295.35 298.894 294.612C299.5 293.874 300.249 293.266 301.096 292.823C301.943 292.381 302.87 292.114 303.822 292.038C304.774 291.962 305.732 292.079 306.638 292.382C307.544 292.685 308.38 293.167 309.095 293.8C309.811 294.432 310.391 295.203 310.802 296.065C311.213 296.928 311.446 297.864 311.487 298.818C312.846 315.275 311.052 350.648 294.867 369.198C290.724 374.076 285.617 378.043 279.866 380.849C274.114 383.656 267.844 385.241 261.45 385.505C260.458 385.573 259.466 385.6 258.501 385.6Z" stroke="#263238" stroke-width="1.11" stroke-linecap="round" stroke-linejoin="round"/>
<path d="M241.052 367.214C241.773 363.884 233.809 369.089 227.137 373.941C229.605 376.026 232.262 377.878 235.073 379.472C237.451 375.599 240.359 370.421 241.052 367.214Z" fill="#60E5AE" stroke="#263238" stroke-width="1.11" stroke-linecap="round" stroke-linejoin="round"/>
<path d="M258.501 385.6C259.466 385.6 260.458 385.6 261.45 385.519C264.337 385.357 267.206 384.952 270.025 384.309C266.274 379.417 261.11 372.949 259.629 372.459C257.93 371.889 254.655 380.219 252.834 385.274C254.715 385.494 256.607 385.602 258.501 385.6Z" fill="#60E5AE" stroke="#263238" stroke-width="1.11" stroke-linecap="round" stroke-linejoin="round"/>
<path d="M220.749 330.468L220.586 329.857C220.329 328.689 219.839 327.586 219.145 326.613C218.452 325.64 217.569 324.816 216.55 324.192C215.531 323.567 214.397 323.155 213.214 322.979C212.032 322.803 210.827 322.868 209.67 323.169C208.513 323.469 207.429 324 206.483 324.73C205.536 325.459 204.746 326.372 204.16 327.414C203.574 328.456 203.205 329.605 203.073 330.793C202.942 331.981 203.052 333.183 203.395 334.327L203.613 335.156C205.879 343.446 209.359 351.355 213.941 358.625L230.126 350.92C225.882 344.673 222.713 337.761 220.749 330.468Z" fill="#60E5AE" stroke="#263238" stroke-width="1.11" stroke-linecap="round" stroke-linejoin="round"/>
<path d="M294.867 369.198C296.111 367.758 297.264 366.242 298.319 364.659C293.182 362.906 285.49 360.487 282.636 360.745C279.253 361.058 283.846 371.929 286.21 377.053C289.393 374.782 292.299 372.146 294.867 369.198Z" fill="#60E5AE" stroke="#263238" stroke-width="1.11" stroke-linecap="round" stroke-linejoin="round"/>
<path d="M295.152 340.157C294.609 341.245 301.254 346.082 305.739 349.194C307.161 344.961 308.305 340.64 309.163 336.257C303.727 337.344 295.682 339.097 295.152 340.157Z" fill="#60E5AE" stroke="#263238" stroke-width="1.11" stroke-linecap="round" stroke-linejoin="round"/>
<path d="M311.365 320.059C311.664 316.186 311.813 312.489 311.827 309.092C307.152 311.66 301.607 315.221 301.607 317.558C301.607 319.895 306.799 320.181 311.365 320.059Z" fill="#60E5AE" stroke="#263238" stroke-width="1.11" stroke-linecap="round" stroke-linejoin="round"/>
<path d="M238.198 214.917C238.198 214.917 225.002 253.131 232.11 282.864C234.215 291.565 238.301 299.662 244.051 306.524C249.8 313.386 257.057 318.827 265.255 322.423C265.255 322.423 245.971 329.218 250.306 339.668C254.641 350.118 271.275 343.392 276.684 340.008C282.092 336.624 288.846 326.486 289.866 319.719C290.47 316.261 290.698 312.748 290.545 309.241C290.545 309.241 312.52 306.877 327.4 294.701C327.4 294.701 340.596 305.178 350.068 303.153C359.54 301.128 373.061 284.21 371.702 269.003C370.343 253.796 361.578 253.81 356.224 256.12C353.444 257.171 350.91 258.781 348.777 260.849C348.777 260.849 356.55 251.337 348.777 238.196C346.482 234.341 343.341 231.059 339.59 228.599C335.839 226.138 331.578 224.564 327.128 223.995C327.128 223.995 323.051 202.347 310.902 194.234C298.753 186.121 255.443 177.723 238.198 214.917Z" fill="white"/>
<mask id="mask2_1001_2095" style="mask-type:luminance" maskUnits="userSpaceOnUse" x="230" y="187" width="142" height="159">
<path d="M238.198 214.917C238.198 214.917 225.002 253.131 232.11 282.864C234.215 291.565 238.301 299.662 244.051 306.524C249.8 313.386 257.057 318.827 265.255 322.423C265.255 322.423 245.971 329.218 250.306 339.668C254.641 350.118 271.275 343.392 276.684 340.008C282.092 336.624 288.846 326.486 289.866 319.719C290.47 316.261 290.698 312.748 290.545 309.241C290.545 309.241 312.52 306.877 327.4 294.701C327.4 294.701 340.596 305.178 350.068 303.153C359.54 301.128 373.061 284.21 371.702 269.003C370.343 253.796 361.578 253.81 356.224 256.12C353.444 257.171 350.91 258.781 348.777 260.849C348.777 260.849 356.55 251.337 348.777 238.196C346.482 234.341 343.341 231.059 339.59 228.599C335.839 226.138 331.578 224.564 327.128 223.995C327.128 223.995 323.051 202.347 310.902 194.234C298.753 186.121 255.443 177.723 238.198 214.917Z" fill="white"/>
</mask>
<g mask="url(#mask2_1001_2095)">
<path d="M338.666 228.058C332.393 238.523 323.712 247.339 313.345 253.772C302.978 260.206 291.224 264.072 279.062 265.048C252.155 267.413 237.07 262.113 230.14 258.43C230.981 243.645 233.721 229.03 238.293 214.944C255.539 177.75 298.822 186.203 310.998 194.315C323.174 202.428 327.224 224.076 327.224 224.076C331.275 224.585 335.174 225.941 338.666 228.058ZM356.224 256.12C353.445 257.171 350.91 258.781 348.777 260.849C350.423 258.58 351.508 255.954 351.943 253.185C333.665 262.29 335.092 281.723 332.823 281.723C330.023 281.723 328.637 271.952 328.637 271.952C328.637 271.952 325.145 285.908 304.176 295.693C283.207 305.477 259.493 297.785 259.493 297.785C259.493 297.785 264.385 308.956 251.815 307.556C248.287 307.219 244.905 305.984 241.99 303.969C248.018 312.005 256.024 318.344 265.228 322.369C265.228 322.369 245.944 329.163 250.279 339.614C254.615 350.064 271.248 343.337 276.657 339.953C282.066 336.57 288.82 326.432 289.839 319.664C290.443 316.207 290.671 312.694 290.518 309.187C290.518 309.187 312.493 306.822 327.373 294.646C327.373 294.646 340.569 305.124 350.041 303.099C359.513 301.074 373.034 284.155 371.675 268.949C370.316 253.742 361.578 253.81 356.224 256.12Z" fill="#60E5AE"/>
<path opacity="0.5" d="M338.666 228.058C332.393 238.523 323.712 247.339 313.345 253.772C302.978 260.206 291.224 264.072 279.062 265.048C252.155 267.413 237.07 262.113 230.14 258.43C230.981 243.645 233.721 229.03 238.293 214.944C255.539 177.75 298.822 186.203 310.998 194.315C323.174 202.428 327.224 224.076 327.224 224.076C331.275 224.585 335.174 225.941 338.666 228.058ZM356.224 256.12C353.445 257.171 350.91 258.781 348.777 260.849C350.423 258.58 351.508 255.954 351.943 253.185C333.665 262.29 335.092 281.723 332.823 281.723C330.023 281.723 328.637 271.952 328.637 271.952C328.637 271.952 325.145 285.908 304.176 295.693C283.207 305.477 259.493 297.785 259.493 297.785C259.493 297.785 264.385 308.956 251.815 307.556C248.287 307.219 244.905 305.984 241.99 303.969C248.018 312.005 256.024 318.344 265.228 322.369C265.228 322.369 245.944 329.163 250.279 339.614C254.615 350.064 271.248 343.337 276.657 339.953C282.066 336.57 288.82 326.432 289.839 319.664C290.443 316.207 290.671 312.694 290.518 309.187C290.518 309.187 312.493 306.822 327.373 294.646C327.373 294.646 340.569 305.124 350.041 303.099C359.513 301.074 373.034 284.155 371.675 268.949C370.316 253.742 361.578 253.81 356.224 256.12Z" fill="white"/>
<path d="M290.613 309.268C283.32 309.463 276.079 307.982 269.448 304.941C262.816 301.899 256.97 297.378 252.358 291.725" stroke="#263238" stroke-width="1.11" stroke-linecap="round" stroke-linejoin="round"/>
</g>
<path d="M238.198 214.917C238.198 214.917 225.002 253.131 232.11 282.864C234.215 291.565 238.301 299.662 244.051 306.524C249.8 313.386 257.057 318.827 265.255 322.423C265.255 322.423 245.971 329.218 250.306 339.668C254.641 350.118 271.275 343.392 276.684 340.008C282.092 336.624 288.846 326.486 289.866 319.719C290.47 316.261 290.698 312.748 290.545 309.241C290.545 309.241 312.52 306.877 327.4 294.701C327.4 294.701 340.596 305.178 350.068 303.153C359.54 301.128 373.061 284.21 371.702 269.003C370.343 253.796 361.578 253.81 356.224 256.12C353.444 257.171 350.91 258.781 348.777 260.849C348.777 260.849 356.55 251.337 348.777 238.196C346.482 234.341 343.341 231.059 339.59 228.599C335.839 226.138 331.578 224.564 327.128 223.995C327.128 223.995 323.051 202.347 310.902 194.234C298.753 186.121 255.443 177.723 238.198 214.917Z" stroke="#263238" stroke-width="1.11" stroke-linecap="round" stroke-linejoin="round"/>
<path d="M348.777 260.904C348.777 260.904 341.67 265.646 338.3 280.187" stroke="#263238" stroke-width="1.11" stroke-linecap="round" stroke-linejoin="round"/>
<path d="M361.81 267.128C360.981 269.601 358.711 271.082 356.754 270.416C354.797 269.75 353.9 267.209 354.729 264.736C355.558 262.263 357.828 260.781 359.785 261.447C361.742 262.113 362.652 264.654 361.81 267.128Z" fill="white" stroke="#263238" stroke-width="1.11" stroke-linecap="round" stroke-linejoin="round"/>
<path d="M368.809 271.531C367.98 274.004 365.71 275.485 363.753 274.819C361.796 274.153 360.886 271.612 361.728 269.139C362.571 266.666 364.827 265.184 366.784 265.85C368.741 266.516 369.651 269.057 368.809 271.531Z" fill="white" stroke="#263238" stroke-width="1.11" stroke-linecap="round" stroke-linejoin="round"/>
<path d="M370.303 278.122C370.032 278.576 369.637 278.945 369.165 279.185C368.692 279.424 368.162 279.525 367.635 279.475C367.107 279.424 366.605 279.226 366.186 278.902C365.767 278.578 365.449 278.141 365.268 277.644C365.087 277.146 365.051 276.607 365.164 276.089C365.277 275.572 365.535 275.097 365.907 274.721C366.279 274.344 366.751 274.08 367.267 273.961C367.783 273.841 368.322 273.87 368.822 274.045C369.544 274.406 370.1 275.03 370.375 275.788C370.651 276.546 370.625 277.382 370.303 278.122Z" fill="white" stroke="#263238" stroke-width="1.11" stroke-linecap="round" stroke-linejoin="round"/>
<path d="M361.375 287.172C358.929 291.589 354.036 293.546 350.435 291.548C346.834 289.55 345.91 284.373 348.356 279.956C350.802 275.54 355.694 273.583 359.296 275.58C362.897 277.578 363.821 282.756 361.375 287.172Z" fill="white" stroke="#263238" stroke-width="1.11" stroke-linecap="round" stroke-linejoin="round"/>
<path d="M265.255 322.45C269.812 324.564 274.988 324.927 279.796 323.47" stroke="#263238" stroke-width="1.11" stroke-linecap="round" stroke-linejoin="round"/>
<path d="M250.375 339.695C250.375 339.695 251.734 333.947 260.173 329.897" stroke="#263238" stroke-width="1.11" stroke-linecap="round" stroke-linejoin="round"/>
<path d="M258.827 344.778C258.827 344.778 262.211 336.624 267.959 332.941" stroke="#263238" stroke-width="1.11" stroke-linecap="round" stroke-linejoin="round"/>
<path d="M125.473 251.228C124.035 250.081 122.889 248.61 122.129 246.936C121.368 245.261 121.014 243.43 121.097 241.593V209.373H37.9826C35.9523 209.449 33.9296 209.085 32.0531 208.306C30.1766 207.527 28.4907 206.352 27.1109 204.861C24.3924 201.985 22.9008 198.164 22.9525 194.207C22.9415 190.991 23.8876 187.846 25.6704 185.17L105.278 60.0653C111.258 50.8336 119.203 46.2177 129.115 46.2177C134.443 46.0367 139.646 47.8598 143.696 51.3273C147.583 54.7247 149.526 59.7754 149.526 66.4795V188.091H170.672C172.132 188.003 173.594 188.238 174.954 188.778C176.314 189.318 177.538 190.151 178.54 191.217C180.328 193.313 181.31 195.977 181.31 198.732C181.31 201.487 180.328 204.151 178.54 206.247C177.538 207.313 176.314 208.146 174.954 208.686C173.594 209.226 172.132 209.461 170.672 209.373H149.377V241.593C149.465 243.416 149.129 245.235 148.396 246.907C147.662 248.579 146.552 250.058 145.15 251.228C142.415 253.521 138.949 254.76 135.379 254.72C131.771 254.749 128.266 253.513 125.473 251.228ZM121.042 188.091V76.1145L51.3412 188.091H121.042Z" fill="#263238"/>
<path d="M240.808 251.88C232.662 248.325 225.448 242.935 219.73 236.13C213.987 228.941 209.503 220.831 206.467 212.145C203.026 202.761 200.606 193.034 199.251 183.131C197.836 172.35 197.155 161.485 197.212 150.612C197.212 78.9773 221.674 43.1601 270.596 43.1601C319.519 43.1601 343.921 78.9773 343.803 150.612C343.852 161.433 343.194 172.246 341.833 182.982C340.522 192.886 338.124 202.616 334.685 211.995C331.649 220.682 327.164 228.791 321.421 235.981C315.696 242.794 308.486 248.206 300.344 251.799C290.983 255.937 280.829 257.978 270.596 257.778C260.358 257.984 250.196 255.972 240.808 251.88ZM285.056 231.319C289.149 229.573 292.864 227.049 295.995 223.886C299.165 220.511 301.772 216.647 303.714 212.444C305.857 207.99 307.591 203.351 308.892 198.583C310.262 193.387 311.261 188.101 311.881 182.764C312.615 176.876 313.105 171.481 313.349 166.579C313.594 161.678 313.712 156.356 313.702 150.612C313.702 144.587 313.585 139.025 313.349 133.924C313.114 128.823 312.602 123.351 311.814 117.508C311.137 112.175 310.116 106.891 308.756 101.69C307.47 96.9694 305.736 92.3826 303.578 87.9916C301.621 83.8546 299.01 80.0598 295.846 76.7532C292.733 73.654 289.039 71.2016 284.974 69.5372C275.682 65.9498 265.388 65.9498 256.096 69.5372C252.061 71.1816 248.394 73.6113 245.306 76.6852C242.165 79.9775 239.56 83.7422 237.587 87.8421C235.41 92.1936 233.697 96.7622 232.477 101.472C231.151 106.705 230.152 112.015 229.488 117.372C228.699 123.297 228.188 128.814 227.952 133.924C227.716 139.034 227.594 144.596 227.585 150.612C227.585 156.347 227.707 161.692 227.952 166.647C228.197 171.603 228.681 177.039 229.406 182.955C230.033 188.291 231.032 193.576 232.396 198.773C233.679 203.539 235.394 208.179 237.519 212.634C239.442 216.812 242.025 220.653 245.17 224.008C248.278 227.151 251.971 229.653 256.042 231.374C265.342 235.16 275.755 235.16 285.056 231.374V231.319Z" fill="#263238"/>
<path d="M469.724 251.228C468.287 250.081 467.141 248.61 466.381 246.936C465.62 245.261 465.266 243.43 465.349 241.593V209.373H382.235C380.204 209.449 378.182 209.085 376.305 208.306C374.429 207.527 372.743 206.352 371.363 204.861C368.644 201.985 367.153 198.164 367.204 194.207C367.193 190.991 368.14 187.846 369.922 185.17L449.53 60.0653C455.455 50.8336 463.378 46.2177 473.298 46.2177C478.655 46.016 483.891 47.8405 487.962 51.3273C491.848 54.7247 493.792 59.7754 493.792 66.4795V188.091H514.937C516.398 188.003 517.86 188.238 519.219 188.778C520.579 189.318 521.803 190.151 522.805 191.217C524.594 193.313 525.576 195.977 525.576 198.732C525.576 201.487 524.594 204.151 522.805 206.247C521.803 207.313 520.579 208.146 519.219 208.686C517.86 209.226 516.398 209.461 514.937 209.373H493.629V241.593C493.717 243.416 493.381 245.235 492.648 246.907C491.914 248.579 490.803 250.058 489.402 251.228C486.667 253.521 483.201 254.76 479.631 254.721C476.022 254.749 472.517 253.513 469.724 251.228ZM465.349 188.091V76.1145L395.647 188.091H465.349Z" fill="#263238"/>
<path d="M210.802 195.647C210.802 195.647 196.601 215.597 194.576 235.886C192.551 256.175 194.916 269.696 201.004 274.779C207.092 279.861 213.167 277.823 216.551 273.08C219.934 268.337 214.526 251.772 214.526 251.772C214.526 251.772 220.274 235.886 229.067 224.729C237.859 213.572 239.544 211.873 239.544 211.873C239.544 211.873 224.324 194.628 210.802 195.647Z" fill="white"/>
<mask id="mask3_1001_2095" style="mask-type:luminance" maskUnits="userSpaceOnUse" x="193" y="195" width="47" height="83">
<path d="M210.802 195.647C210.802 195.647 196.601 215.597 194.576 235.886C192.551 256.175 194.916 269.696 201.004 274.779C207.092 279.861 213.167 277.823 216.551 273.08C219.934 268.337 214.526 251.772 214.526 251.772C214.526 251.772 220.274 235.886 229.067 224.729C237.859 213.572 239.544 211.873 239.544 211.873C239.544 211.873 224.324 194.628 210.802 195.647Z" fill="white"/>
</mask>
<g mask="url(#mask3_1001_2095)">
<path d="M210.802 195.647C207.703 200.226 204.955 205.032 202.58 210.025C209.375 212.743 219.907 218.314 226.593 228.18C227.408 226.998 228.251 225.829 229.121 224.729C237.913 213.572 239.598 211.873 239.598 211.873C239.598 211.873 224.323 194.628 210.802 195.647Z" fill="#60E5AE"/>
<path opacity="0.5" d="M210.802 195.647C207.703 200.226 204.955 205.032 202.58 210.025C209.375 212.743 219.907 218.314 226.593 228.18C227.408 226.998 228.251 225.829 229.121 224.729C237.913 213.572 239.598 211.873 239.598 211.873C239.598 211.873 224.323 194.628 210.802 195.647Z" fill="white"/>
</g>
<path d="M210.802 195.647C210.802 195.647 196.601 215.597 194.576 235.886C192.551 256.175 194.916 269.696 201.004 274.779C207.092 279.861 213.167 277.823 216.551 273.08C219.934 268.337 214.526 251.772 214.526 251.772C214.526 251.772 220.274 235.886 229.067 224.729C237.859 213.572 239.544 211.873 239.544 211.873C239.544 211.873 224.324 194.628 210.802 195.647Z" stroke="#263238" stroke-width="1.11" stroke-linecap="round" stroke-linejoin="round"/>
<path d="M201.004 274.779C199.344 270.345 198.537 265.637 198.626 260.904" stroke="#263238" stroke-width="1.11" stroke-linecap="round" stroke-linejoin="round"/>
<path d="M210.122 276.803C210.122 276.803 206.752 271.055 206.412 261.243" stroke="#263238" stroke-width="1.11" stroke-linecap="round" stroke-linejoin="round"/>
<path d="M215.205 231.822C215.205 228.262 208.41 221.304 198.965 218.233C197.696 221.543 196.647 224.935 195.826 228.384C199.496 229.012 203.059 230.151 206.412 231.768C211.481 234.527 215.205 235.886 215.205 231.822Z" fill="#60E5AE" stroke="#263238" stroke-width="1.11" stroke-linecap="round" stroke-linejoin="round"/>
<path d="M209.972 196.857C207.782 200.196 205.768 203.648 203.938 207.198C206.798 207.954 209.542 209.097 212.092 210.596C222.57 216.67 224.595 217.39 221.224 208.557C219.186 203.013 214.321 199.248 209.972 196.857Z" fill="#60E5AE" stroke="#263238" stroke-width="1.11" stroke-linecap="round" stroke-linejoin="round"/>
<path d="M322.033 185.795C322.033 185.795 338.123 204.249 342.132 224.253C346.141 244.257 345.122 257.941 339.55 263.581C333.978 269.22 327.741 267.807 323.909 263.418C320.076 259.028 323.909 242.028 323.909 242.028C323.909 242.028 316.624 226.767 306.786 216.521C296.947 206.274 295.085 204.766 295.085 204.766C295.085 204.766 308.471 186.107 322.033 185.795Z" fill="white"/>
<mask id="mask4_1001_2095" style="mask-type:luminance" maskUnits="userSpaceOnUse" x="295" y="185" width="50" height="83">
<path d="M322.033 185.795C322.033 185.795 338.123 204.249 342.132 224.253C346.141 244.257 345.122 257.941 339.55 263.581C333.978 269.22 327.741 267.807 323.909 263.418C320.076 259.028 323.909 242.028 323.909 242.028C323.909 242.028 316.624 226.767 306.786 216.521C296.947 206.274 295.085 204.766 295.085 204.766C295.085 204.766 308.471 186.107 322.033 185.795Z" fill="white"/>
</mask>
<g mask="url(#mask4_1001_2095)">
<path d="M322.033 185.795C308.443 186.107 295.017 204.82 295.017 204.82C295.017 204.82 296.865 206.342 306.717 216.575C308.56 218.515 310.293 220.557 311.909 222.69C317.051 214.004 324.397 206.832 333.203 201.898C329.963 196.211 326.225 190.822 322.033 185.795Z" fill="#60E5AE"/>
<path opacity="0.5" d="M322.033 185.795C308.443 186.107 295.017 204.82 295.017 204.82C295.017 204.82 296.865 206.342 306.717 216.575C308.56 218.515 310.293 220.557 311.909 222.69C317.051 214.004 324.397 206.832 333.203 201.898C329.963 196.211 326.225 190.822 322.033 185.795Z" fill="white"/>
</g>
<path d="M322.033 185.795C322.033 185.795 338.123 204.249 342.132 224.253C346.141 244.257 345.122 257.941 339.55 263.581C333.978 269.22 327.741 267.807 323.909 263.418C320.076 259.028 323.909 242.028 323.909 242.028C323.909 242.028 316.624 226.767 306.786 216.521C296.947 206.274 295.085 204.766 295.085 204.766C295.085 204.766 308.471 186.107 322.033 185.795Z" stroke="#263238" stroke-width="1.11" stroke-linecap="round" stroke-linejoin="round"/>
<path d="M339.55 263.581C340.768 259.012 341.109 254.253 340.555 249.557" stroke="#263238" stroke-width="1.11" stroke-linecap="round" stroke-linejoin="round"/>
<path d="M330.662 266.489C330.662 266.489 333.475 260.442 332.85 250.644" stroke="#263238" stroke-width="1.11" stroke-linecap="round" stroke-linejoin="round"/>
<path d="M321.204 222.228C320.864 218.681 326.939 211.098 336.044 207.171C337.619 210.338 338.981 213.607 340.121 216.955C336.537 217.955 333.108 219.441 329.928 221.372C325.172 224.566 321.612 226.223 321.204 222.228Z" fill="#60E5AE" stroke="#263238" stroke-width="1.11" stroke-linecap="round" stroke-linejoin="round"/>
<path d="M322.971 186.923C325.47 190.007 327.802 193.223 329.956 196.558C327.174 197.588 324.545 198.991 322.142 200.73C312.316 207.823 310.359 208.693 312.86 199.615C314.423 193.962 318.88 189.722 322.971 186.923Z" fill="#60E5AE" stroke="#263238" stroke-width="1.11" stroke-linecap="round" stroke-linejoin="round"/>
<path d="M209.47 178.389C209.47 178.389 205.284 192.508 206.86 198.256C208.437 204.005 215.748 198.786 223.073 205.051C230.398 211.316 237.179 222.622 264.915 224.715C292.652 226.808 309.394 211.846 315.197 203.475C321 195.104 320.429 185.17 330.363 184.653C340.297 184.137 331.939 164.772 328.8 161.633C328.8 161.633 348.152 132.864 348.152 125.539C348.152 118.215 329.846 119.777 307.383 126.586C307.383 126.586 290.64 117.685 260.295 122.917C229.949 128.148 221.062 137.05 221.062 137.05C221.062 137.05 183.391 141.751 180.782 146.453C178.173 151.155 185.932 171.064 209.47 178.389Z" fill="white"/>
<mask id="mask5_1001_2095" style="mask-type:luminance" maskUnits="userSpaceOnUse" x="180" y="120" width="169" height="105">
<path d="M209.47 178.389C209.47 178.389 205.284 192.508 206.86 198.256C208.437 204.005 215.748 198.786 223.073 205.051C230.398 211.316 237.179 222.622 264.915 224.715C292.652 226.808 309.394 211.846 315.197 203.475C321 195.104 320.429 185.17 330.363 184.653C340.297 184.137 331.939 164.772 328.8 161.633C328.8 161.633 348.152 132.864 348.152 125.539C348.152 118.215 329.846 119.777 307.383 126.586C307.383 126.586 290.64 117.685 260.295 122.917C229.949 128.148 221.062 137.05 221.062 137.05C221.062 137.05 183.391 141.751 180.782 146.453C178.173 151.155 185.932 171.064 209.47 178.389Z" fill="white"/>
</mask>
<g mask="url(#mask5_1001_2095)">
<path d="M330.322 184.667C340.27 184.137 331.899 164.786 328.76 161.646C328.76 161.646 332.442 156.211 336.587 149.416C325.349 143.545 314.314 140.284 311.378 143.586C305.059 150.68 308.497 164.269 311.378 177.56C314.259 190.85 302.749 196.517 294.704 208.014C286.659 219.51 275.176 206.859 275.176 206.859C271.099 223.533 253.908 212.607 253.908 212.607C240.699 208.53 218.29 195.375 222.883 186.175C227.476 176.975 228.631 168.36 220.586 160.899C212.541 153.438 180.456 147.228 180.456 147.228C178.771 152.895 186.911 171.458 209.484 178.484C209.484 178.484 205.298 192.603 206.874 198.352C208.451 204.1 215.762 198.882 223.087 205.146C230.412 211.411 237.193 222.717 264.929 224.81C292.666 226.903 309.408 211.941 315.211 203.57C321.013 195.199 320.375 185.183 330.322 184.667Z" fill="#60E5AE"/>
<path opacity="0.5" d="M330.322 184.667C340.27 184.137 331.899 164.786 328.76 161.646C328.76 161.646 332.442 156.211 336.587 149.416C325.349 143.545 314.314 140.284 311.378 143.586C305.059 150.68 308.497 164.269 311.378 177.56C314.259 190.85 302.749 196.517 294.704 208.014C286.659 219.51 275.176 206.859 275.176 206.859C271.099 223.533 253.908 212.607 253.908 212.607C240.699 208.53 218.29 195.375 222.883 186.175C227.476 176.975 228.631 168.36 220.586 160.899C212.541 153.438 180.456 147.228 180.456 147.228C178.771 152.895 186.911 171.458 209.484 178.484C209.484 178.484 205.298 192.603 206.874 198.352C208.451 204.1 215.762 198.882 223.087 205.146C230.412 211.411 237.193 222.717 264.929 224.81C292.666 226.903 309.408 211.941 315.211 203.57C321.013 195.199 320.375 185.183 330.322 184.667Z" fill="white"/>
<path d="M289.404 187.82C289.799 191.136 282.433 194.71 272.988 195.81C263.543 196.911 255.553 195.117 255.159 191.733C254.765 188.35 262.13 184.857 271.588 183.756C281.047 182.656 289.024 184.518 289.404 187.82Z" fill="#60E5AE"/>
<path opacity="0.5" d="M289.404 187.82C289.799 191.136 282.433 194.71 272.988 195.81C263.543 196.911 255.553 195.117 255.159 191.733C254.765 188.35 262.13 184.857 271.588 183.756C281.047 182.656 289.024 184.518 289.404 187.82Z" fill="white"/>
</g>
<path d="M209.47 178.389C209.47 178.389 205.284 192.508 206.86 198.256C208.437 204.005 215.748 198.786 223.073 205.051C230.398 211.316 237.179 222.622 264.915 224.715C292.652 226.808 309.394 211.846 315.197 203.475C321 195.104 320.429 185.17 330.363 184.653C340.297 184.137 331.939 164.772 328.8 161.633C328.8 161.633 348.152 132.864 348.152 125.539C348.152 118.215 329.846 119.777 307.383 126.586C307.383 126.586 290.64 117.685 260.295 122.917C229.949 128.148 221.062 137.05 221.062 137.05C221.062 137.05 183.391 141.751 180.782 146.453C178.173 151.155 185.932 171.064 209.47 178.389Z" stroke="#263238" stroke-width="1.11" stroke-miterlimit="10"/>
<path d="M317.67 136.533C304.081 145.665 308.878 154.797 314.952 159.866C318.662 162.965 324.642 162.584 328.732 161.714C328.732 161.714 348.084 132.946 348.084 125.621C348.097 125.553 331.192 127.333 317.67 136.533Z" fill="#60E5AE" stroke="#263238" stroke-width="1.11" stroke-miterlimit="10"/>
<path d="M180.442 147.133C178.757 152.8 186.898 171.363 209.47 178.389C209.47 178.389 226.701 176.704 220.953 162.842C215.585 149.905 188.447 146.684 180.442 147.133Z" fill="#60E5AE" stroke="#263238" stroke-width="1.11" stroke-miterlimit="10"/>
<path d="M260.214 122.944C258.434 123.256 256.721 123.582 255.077 123.909C257.795 137.634 262.266 160.491 266.261 160.491C270.257 160.491 273.314 135.432 274.619 121.394C269.789 121.598 264.977 122.115 260.214 122.944Z" fill="#60E5AE" stroke="#263238" stroke-width="1.11" stroke-miterlimit="10"/>
<path d="M244.626 156.415C248.785 153.968 248.16 135.582 247.494 125.607C243.202 126.674 238.977 127.994 234.842 129.562C236.35 138.898 240.183 159.024 244.626 156.415Z" fill="#60E5AE" stroke="#263238" stroke-width="1.11" stroke-miterlimit="10"/>
<path d="M284.865 147.962C289.118 149.457 291.51 134.169 292.855 122.4C288.56 121.7 284.216 121.332 279.864 121.299C279.728 130.961 280.258 146.345 284.865 147.962Z" fill="#60E5AE" stroke="#263238" stroke-width="1.11" stroke-miterlimit="10"/>
<path d="M279.171 200.879C275.202 199.836 270.984 200.356 267.389 202.333C267.231 202.424 267.097 202.551 266.997 202.703C266.897 202.855 266.834 203.029 266.813 203.21C266.791 203.39 266.813 203.574 266.875 203.745C266.937 203.916 267.039 204.07 267.171 204.195L274.387 210.99C274.523 211.116 274.686 211.209 274.864 211.26C275.042 211.311 275.23 211.319 275.412 211.283C275.594 211.248 275.765 211.169 275.91 211.054C276.056 210.939 276.172 210.791 276.249 210.623L279.945 202.469C280.011 202.315 280.044 202.148 280.04 201.98C280.035 201.813 279.995 201.648 279.922 201.497C279.848 201.346 279.743 201.213 279.614 201.106C279.484 201 279.333 200.922 279.171 200.879Z" fill="#60E5AE" stroke="#263238" stroke-width="1.11" stroke-linecap="round" stroke-linejoin="round"/>
<path d="M262.021 189.532C263.013 192.155 262.619 194.737 261.138 195.294C259.657 195.851 257.646 194.193 256.64 191.584C255.634 188.975 256.042 186.379 257.523 185.822C259.005 185.265 261.016 186.923 262.021 189.532Z" fill="#263238"/>
<path d="M281.699 187.67C281.182 190.388 282.025 192.902 283.588 193.188C285.151 193.473 286.836 191.489 287.352 188.73C287.868 185.972 287.026 183.512 285.463 183.213C283.9 182.914 282.215 184.925 281.699 187.67Z" fill="#263238"/>
<path d="M276.25 210.609C276.25 210.609 266.601 223.709 257.809 210.528" stroke="#263238" stroke-width="1.11" stroke-linecap="round" stroke-linejoin="round"/>
<path d="M274.388 210.976C274.388 210.976 280.802 217.621 287.57 213.898C294.337 210.174 290.288 204.385 290.288 204.385" stroke="#263238" stroke-width="1.11" stroke-linecap="round" stroke-linejoin="round"/>
<path d="M244.966 179.068C244.966 179.068 247.33 170.615 258.487 172.64" stroke="#263238" stroke-width="3.34" stroke-linecap="round" stroke-linejoin="round"/>
<path d="M278.777 171.295C278.777 171.295 287.23 166.226 295.003 174.339" stroke="#263238" stroke-width="3.34" stroke-linecap="round" stroke-linejoin="round"/>
<path d="M238.524 201.735L246.651 203.76" stroke="#263238" stroke-width="1.11" stroke-miterlimit="10" stroke-linecap="round"/>
<path d="M245.632 206.804L238.524 208.163" stroke="#263238" stroke-width="1.11" stroke-miterlimit="10" stroke-linecap="round"/>
<path d="M246.991 210.528L241.908 213.232" stroke="#263238" stroke-width="1.11" stroke-miterlimit="10" stroke-linecap="round"/>
<path d="M298.387 198.012L305.494 196.327" stroke="#263238" stroke-width="1.11" stroke-miterlimit="10" stroke-linecap="round"/>
<path d="M299.746 201.396H304.475" stroke="#263238" stroke-width="1.11" stroke-miterlimit="10" stroke-linecap="round"/>
<path d="M300.751 204.779L307.179 206.464" stroke="#263238" stroke-width="1.11" stroke-miterlimit="10" stroke-linecap="round"/>
</g>
<defs>
<filter id="filter0_d_1001_2095" x="20.0947" y="257.927" width="183.537" height="71.9524" filterUnits="userSpaceOnUse" color-interpolation-filters="sRGB">
<feFlood flood-opacity="0" result="BackgroundImageFix"/>
<feColorMatrix in="SourceAlpha" type="matrix" values="0 0 0 0 0 0 0 0 0 0 0 0 0 0 0 0 0 0 127 0" result="hardAlpha"/>
<feOffset dy="4"/>
<feGaussianBlur stdDeviation="2"/>
<feComposite in2="hardAlpha" operator="out"/>
<feColorMatrix type="matrix" values="0 0 0 0 0 0 0 0 0 0 0 0 0 0 0 0 0 0 0.25 0"/>
<feBlend mode="normal" in2="BackgroundImageFix" result="effect1_dropShadow_1001_2095"/>
<feBlend mode="normal" in="SourceGraphic" in2="effect1_dropShadow_1001_2095" result="shape"/>
</filter>
<clipPath id="clip0_1001_2095">
<rect width="584" height="520" fill="white"/>
</clipPath>
</defs>
</svg>
