<svg width="424" height="336" viewBox="0 0 424 336" fill="none" xmlns="http://www.w3.org/2000/svg">
<g clip-path="url(#clip0_1001_2313)">
<path opacity="0.15" d="M51.3605 98.4531C50.5827 98.4529 49.808 98.551 49.0548 98.7451C48.954 94.5013 47.3838 90.4237 44.6118 87.2072C41.8398 83.9907 38.0375 81.8343 33.8529 81.1055C29.6683 80.3767 25.3602 81.1206 21.6629 83.2104C17.9656 85.3002 15.1078 88.6066 13.5765 92.5661H13C9.68273 92.5661 6.50132 93.8831 4.15565 96.2273C1.80997 98.5715 0.492188 101.751 0.492188 105.066C0.492188 108.381 1.80997 111.561 4.15565 113.905C6.50132 116.249 9.68273 117.566 13 117.566H51.3526C53.8381 117.495 56.1978 116.458 57.9305 114.676C59.6633 112.893 60.6326 110.506 60.6326 108.021C60.6326 105.537 59.6633 103.149 57.9305 101.367C56.1978 99.5851 53.8381 98.5482 51.3526 98.4768L51.3605 98.4531Z" fill="url(#paint0_linear_1001_2313)"/>
<path opacity="0.15" d="M407.146 176.468C406.675 176.469 406.206 176.527 405.749 176.641C405.688 174.063 404.735 171.586 403.051 169.631C401.367 167.677 399.057 166.367 396.514 165.925C393.972 165.483 391.355 165.936 389.109 167.206C386.863 168.477 385.128 170.487 384.2 172.893H383.844C381.83 172.893 379.898 173.693 378.473 175.116C377.048 176.54 376.248 178.471 376.248 180.484C376.248 182.498 377.048 184.429 378.473 185.852C379.898 187.276 381.83 188.076 383.844 188.076H407.146C407.926 188.105 408.704 187.976 409.432 187.698C410.161 187.419 410.826 186.997 411.388 186.456C411.95 185.915 412.397 185.266 412.702 184.548C413.007 183.831 413.164 183.059 413.164 182.28C413.164 181.5 413.007 180.728 412.702 180.011C412.397 179.293 411.95 178.644 411.388 178.103C410.826 177.562 410.161 177.14 409.432 176.861C408.704 176.583 407.926 176.455 407.146 176.483V176.468Z" fill="url(#paint1_linear_1001_2313)"/>
<path opacity="0.15" d="M304.479 28.9377C303.204 28.9389 301.934 29.0953 300.696 29.4033C300.526 22.4365 297.944 15.7442 293.392 10.4654C288.839 5.18671 282.597 1.6479 275.727 0.451409C268.857 -0.745083 261.785 0.474692 255.714 3.9031C249.643 7.33151 244.948 12.7566 242.429 19.255H241.482C236.037 19.255 230.815 21.4167 226.964 25.2645C223.114 29.1123 220.951 34.331 220.951 39.7726C220.951 45.2143 223.114 50.433 226.964 54.2808C230.815 58.1286 236.037 60.2903 241.482 60.2903H304.479C308.638 60.2903 312.627 58.6391 315.568 55.7C318.509 52.7608 320.161 48.7745 320.161 44.618C320.161 40.4614 318.509 36.4751 315.568 33.536C312.627 30.5968 308.638 28.9456 304.479 28.9456V28.9377Z" fill="url(#paint2_linear_1001_2313)"/>
<path d="M76.1318 150.134C79.0231 150.134 81.3671 147.791 81.3671 144.902C81.3671 142.012 79.0231 139.67 76.1318 139.67C73.2404 139.67 70.8965 142.012 70.8965 144.902C70.8965 147.791 73.2404 150.134 76.1318 150.134Z" fill="url(#paint3_linear_1001_2313)"/>
<path d="M404.833 255.721C406.669 255.721 408.158 254.233 408.158 252.399C408.158 250.564 406.669 249.076 404.833 249.076C402.997 249.076 401.509 250.564 401.509 252.399C401.509 254.233 402.997 255.721 404.833 255.721Z" fill="url(#paint4_linear_1001_2313)"/>
<path d="M65.0057 138.573C66.0655 138.573 66.9245 137.714 66.9245 136.655C66.9245 135.596 66.0655 134.738 65.0057 134.738C63.946 134.738 63.0869 135.596 63.0869 136.655C63.0869 137.714 63.946 138.573 65.0057 138.573Z" fill="black"/>
<path d="M123.613 193.213C125.763 193.213 127.506 191.471 127.506 189.323C127.506 187.174 125.763 185.432 123.613 185.432C121.463 185.432 119.72 187.174 119.72 189.323C119.72 191.471 121.463 193.213 123.613 193.213Z" stroke="black" stroke-miterlimit="10"/>
<path d="M142.745 316.721C144.581 316.721 146.07 315.234 146.07 313.399C146.07 311.564 144.581 310.077 142.745 310.077C140.909 310.077 139.421 311.564 139.421 313.399C139.421 315.234 140.909 316.721 142.745 316.721Z" fill="url(#paint5_linear_1001_2313)"/>
<path d="M370.342 154.332C370.342 155.269 370.064 156.184 369.543 156.963C369.023 157.741 368.283 158.348 367.417 158.707C366.551 159.065 365.599 159.159 364.68 158.976C363.761 158.793 362.916 158.342 362.254 157.68C361.591 157.018 361.14 156.174 360.957 155.256C360.774 154.337 360.868 153.385 361.227 152.52C361.585 151.655 362.193 150.916 362.972 150.395C363.751 149.875 364.667 149.597 365.604 149.597C366.861 149.597 368.066 150.096 368.954 150.984C369.843 151.872 370.342 153.076 370.342 154.332Z" fill="url(#paint6_linear_1001_2313)"/>
<path d="M381.176 140.996C381.176 141.487 381.03 141.968 380.757 142.377C380.483 142.785 380.095 143.104 379.64 143.292C379.186 143.48 378.686 143.53 378.203 143.434C377.721 143.338 377.278 143.101 376.93 142.753C376.582 142.406 376.345 141.963 376.249 141.481C376.153 140.998 376.202 140.499 376.391 140.044C376.579 139.59 376.898 139.202 377.307 138.929C377.716 138.656 378.197 138.51 378.689 138.51C379.348 138.512 379.979 138.774 380.445 139.24C380.911 139.706 381.174 140.337 381.176 140.996Z" fill="black"/>
<path d="M326.841 81.3288C326.843 82.6495 326.452 83.941 325.719 85.04C324.986 86.1389 323.943 86.9958 322.723 87.5023C321.502 88.0088 320.159 88.1422 318.862 87.8854C317.566 87.6287 316.375 86.9935 315.44 86.0602C314.505 85.1268 313.868 83.9372 313.609 82.642C313.351 81.3467 313.483 80.004 313.988 78.7836C314.494 77.5633 315.35 76.5201 316.449 75.7862C317.547 75.0523 318.839 74.6605 320.161 74.6605C321.931 74.6605 323.629 75.3628 324.882 76.6131C326.134 77.8634 326.839 79.5595 326.841 81.3288Z" fill="url(#paint7_linear_1001_2313)"/>
<path opacity="0.5" d="M122.728 328.961L79.0293 311.174L103.429 251.294L136.357 264.693L142.745 279.861L122.728 328.961Z" fill="url(#paint8_linear_1001_2313)"/>
<path d="M131.967 275.473L142.745 279.861L136.357 264.693L131.967 275.473Z" fill="url(#paint9_linear_1001_2313)"/>
<path d="M120.944 302.714L116.166 291.39L127.506 286.616L125.674 282.275L114.342 287.042L109.565 275.718L105.222 277.548L109.991 288.873L98.6602 293.639L100.492 297.987L111.823 293.213L116.601 304.545L120.944 302.714Z" fill="white"/>
<path opacity="0.5" d="M211.594 166.556L178.35 200.023L132.44 154.474L157.48 129.261L173.944 129.206L211.594 166.556Z" fill="url(#paint10_linear_1001_2313)"/>
<path d="M165.747 137.46L173.943 129.206L157.479 129.261L165.747 137.46Z" fill="url(#paint11_linear_1001_2313)"/>
<path d="M186.665 158.104L174.37 158.152L174.323 145.865L169.609 145.88L169.648 158.167L157.354 158.215L157.369 162.926L169.672 162.878L169.711 175.173L174.425 175.15L174.386 162.863L186.681 162.815L186.665 158.104Z" fill="white"/>
<path opacity="0.5" d="M75.389 319.996L42.698 328.961L30.3955 284.169L55.0243 277.422L65.3053 283.27L75.389 319.996Z" fill="url(#paint12_linear_1001_2313)"/>
<path d="M57.2354 285.479L65.3055 283.27L55.0244 277.422L57.2354 285.479Z" fill="url(#paint13_linear_1001_2313)"/>
<path d="M55.3478 316.248C54.9801 316.35 54.6511 316.559 54.4025 316.849C54.1538 317.138 53.9968 317.495 53.9513 317.873C53.9057 318.252 53.9738 318.636 54.1467 318.976C54.3197 319.316 54.5898 319.597 54.9228 319.783C55.2558 319.969 55.6367 320.053 56.0171 320.022C56.3976 319.992 56.7605 319.85 57.0597 319.613C57.359 319.376 57.5813 319.056 57.6982 318.693C57.8152 318.33 57.8216 317.94 57.7167 317.574C57.5769 317.085 57.2494 316.671 56.8056 316.423C56.3618 316.175 55.8378 316.112 55.3478 316.248Z" fill="white"/>
<path d="M55.3564 286.324C54.3638 285.689 53.2683 285.233 52.1188 284.974C50.5328 284.628 48.8855 284.682 47.3258 285.132C45.0425 285.768 43.0743 287.224 41.7983 289.22C40.456 291.163 39.8615 293.526 40.1243 295.872C40.3609 297.82 41.2129 299.642 42.5563 301.073L42.888 301.404C42.888 301.404 44.6963 303.306 46.1176 303.385C46.3812 303.425 46.6503 303.408 46.9072 303.338C47.3963 303.198 47.8102 302.871 48.0587 302.427C48.3072 301.984 48.3702 301.46 48.2338 300.97C48.207 300.894 48.1754 300.821 48.1391 300.749C48.116 300.692 48.0896 300.637 48.0601 300.583C47.8218 300.159 47.4759 299.806 47.0573 299.558C45.7111 298.802 44.7179 297.545 44.2936 296.062C44.0777 295.303 44.0366 294.506 44.1734 293.73C44.3102 292.954 44.6212 292.218 45.0832 291.579C45.8539 290.356 47.0533 289.464 48.447 289.078C49.228 288.846 50.0506 288.789 50.856 288.912C51.6614 289.035 52.4297 289.334 53.1059 289.788C54.3457 290.526 55.2576 291.708 55.6564 293.094C56.2407 295.136 55.8064 297.603 54.3535 300.497C54.2351 300.741 54.1008 301.01 53.9508 301.286C53.0906 302.676 52.3534 304.139 51.7477 305.658C51.266 307.341 51.2825 309.128 51.7951 310.803L52.0083 311.537C52.0166 311.573 52.0299 311.607 52.0478 311.639C52.1891 312.13 52.5198 312.545 52.967 312.792C53.4142 313.039 53.9414 313.098 54.4325 312.957C54.9236 312.816 55.3384 312.485 55.5857 312.038C55.833 311.592 55.8925 311.065 55.7512 310.574L55.38 309.28C55.2211 308.61 55.1942 307.916 55.3011 307.236C55.3059 307.191 55.3059 307.146 55.3011 307.102C55.9222 305.541 56.6286 304.016 57.4173 302.533C57.903 301.678 58.3253 300.789 58.6807 299.873C59.8704 296.796 60.1547 294.165 59.5335 291.982C58.897 289.641 57.4069 287.622 55.3564 286.324Z" fill="white"/>
<path d="M198.21 137.91L209.407 157.512L112.463 212.863C110.745 213.843 109.487 215.466 108.966 217.373C108.445 219.281 108.703 221.317 109.683 223.035L168.346 325.718C169.328 327.435 170.953 328.692 172.863 329.213C174.773 329.734 176.812 329.476 178.532 328.495L335.961 238.636C337.68 237.655 338.938 236.033 339.459 234.125C339.98 232.218 339.722 230.181 338.741 228.464L265.139 99.7C264.158 97.983 262.534 96.7258 260.625 96.2049C258.717 95.684 256.679 95.942 254.961 96.9222L200.989 127.699C200.133 128.184 199.382 128.834 198.778 129.611C198.175 130.388 197.731 131.277 197.473 132.226C197.214 133.175 197.147 134.166 197.273 135.142C197.399 136.117 197.718 137.058 198.21 137.91Z" fill="url(#paint14_linear_1001_2313)"/>
<path d="M204.037 328.961C204.037 328.961 197.436 312.184 178.587 311.726C178.587 311.726 195.959 304.829 206.161 317.518C206.161 317.518 205.908 306.289 201.873 296.212C201.873 296.212 217.097 308.412 217.097 328.969" fill="black"/>
<path d="M209.185 328.969C209.185 328.969 200.112 300.394 171.985 287.855C171.985 287.855 201.012 290.948 213.836 320.154C213.836 320.154 215.044 302.667 208.088 291.027C208.088 291.027 220.927 298.634 222.206 314.654C222.206 314.654 228.405 298.934 241.505 296.772C241.505 296.772 226.889 305.531 225.483 328.961" fill="url(#paint15_linear_1001_2313)"/>
<path d="M314.372 328.961C314.372 328.961 319.528 306.589 336.608 302.564C336.608 302.564 326.469 308.207 322.64 321.803C322.64 321.803 329.186 312.957 339.064 311.032C339.064 311.032 332.613 315.356 329.494 320.999C329.494 320.999 336.45 316.666 346.826 318.079C346.826 318.079 334.832 318.702 331.207 328.969" fill="url(#paint16_linear_1001_2313)"/>
<path d="M83.0645 241.564C83.0645 241.564 82.417 241.264 81.3115 240.672" stroke="url(#paint17_linear_1001_2313)" stroke-linecap="round" stroke-linejoin="round"/>
<path d="M77.8452 238.675C66.9008 231.794 43.4249 212.413 56.217 178.251C70.3278 140.459 133.767 152.154 132.022 167.471C129.203 191.974 68.7407 164.646 92.9667 118.797C110.094 86.3713 154.961 96.6302 171.141 118.118" stroke="url(#paint18_linear_1001_2313)" stroke-linecap="round" stroke-linejoin="round" stroke-dasharray="5.02 5.02"/>
<path d="M172.198 119.736C172.569 120.289 172.917 120.841 173.241 121.409C173.154 120.841 173.043 120.194 172.917 119.46" stroke="url(#paint19_linear_1001_2313)" stroke-linecap="round" stroke-linejoin="round"/>
<path d="M172.294 115.601C169.356 97.6324 165.44 55.9105 217.84 47.2852C262.604 39.9147 275.562 79.3559 278.555 92.0847" stroke="url(#paint20_linear_1001_2313)" stroke-linecap="round" stroke-linejoin="round" stroke-dasharray="4.97 4.97"/>
<path d="M278.941 94.0418C279.186 95.2808 279.289 95.9831 279.289 95.9831" stroke="url(#paint21_linear_1001_2313)" stroke-linecap="round" stroke-linejoin="round"/>
<path d="M274.251 115.664C274.251 115.664 274.536 116.382 273.959 116.58C273.509 116.737 269.222 115.001 267.998 114.599C266.197 113.96 265.4 115.388 265.984 116.351C266.426 117.077 271.077 120.407 271.875 121.022C272.784 121.821 273.78 122.514 274.844 123.09C276.174 123.576 277.568 123.865 278.981 123.95L292.318 147.261L304.273 138.541C304.273 138.541 286.001 119.018 284.667 117.613C283.332 116.209 277.244 110.148 274.338 107.299C272.309 105.319 270.153 103.235 269.672 102.841C267.934 101.452 267.374 103.63 267.374 103.63L274.251 115.664Z" fill="url(#paint22_linear_1001_2313)"/>
<path style="mix-blend-mode:multiply" opacity="0.6" d="M278.989 123.942L295.382 145.02L292.31 147.261L278.989 123.942Z" fill="url(#paint23_linear_1001_2313)"/>
<path d="M19.1035 328.961H423.01" stroke="black" stroke-width="1.23" stroke-miterlimit="10" stroke-linecap="round"/>
<path d="M299.196 335.519H240.415" stroke="black" stroke-width="1.23" stroke-miterlimit="10" stroke-linecap="round"/>
<path d="M186.697 335.519H30.7041" stroke="black" stroke-width="1.23" stroke-miterlimit="10" stroke-linecap="round"/>
<path d="M356.286 335.519H407.873" stroke="black" stroke-width="1.23" stroke-miterlimit="10" stroke-linecap="round"/>
<path d="M391.062 291.966L405.275 302.509C405.275 302.509 408.679 304.971 407.044 308.293C405.899 310.661 400.948 313.817 396.305 315.017L381.649 305.16L391.062 291.966Z" fill="url(#paint24_linear_1001_2313)"/>
<path d="M310.709 298.974L306.761 316.208C306.761 316.208 305.876 320.312 302.173 320.154C299.575 320.044 294.663 316.8 291.694 313.052L294.853 295.691L310.709 298.974Z" fill="url(#paint25_linear_1001_2313)"/>
<path d="M335.701 167.811C335.701 167.811 323.406 156.258 316.797 150.315C316.797 150.315 308.774 162.847 307.677 166.674C307.677 166.674 319.024 179.3 326.849 178.977C334.674 178.653 338.978 172.467 335.701 167.811Z" fill="#BC80F4"/>
<path d="M306.61 175.891C306.05 177.643 305.513 180.524 304.936 181.976C303.578 195.233 324.448 208.159 338.006 227.059L367.333 209.651C367.333 209.651 351.493 180.689 343.02 172.956C339.416 169.627 335.14 167.106 330.482 165.563C325.823 164.019 320.888 163.489 316.007 164.007" fill="#BC80F4"/>
<path d="M331.271 218.671C327.141 213.936 322.798 209.627 318.85 205.531L324.961 193.213C327.808 201.497 329.919 210.016 331.271 218.671Z" fill="black"/>
<path d="M301.66 203.598L300.309 224.416L281.516 261.15C279.519 261.522 277.555 262.05 275.641 262.728C274.062 263.47 272.917 265.561 272.175 266.745C271.432 267.929 268.732 271.441 268.108 272.435C267.484 273.429 268.187 274.873 270.153 274.518C271.946 274.195 275.791 270.407 277.576 268.947C278.302 268.355 278.776 268.347 278.263 269.168C277.639 270.186 275.562 273.114 275.562 273.114L267.05 277.99C267.145 278.45 267.408 278.858 267.787 279.135C268.167 279.412 268.636 279.539 269.103 279.49C270.919 279.403 279.834 277.051 282.827 274.905C285.962 272.477 288.845 269.741 291.434 266.737C291.434 266.737 313.322 243.465 318.826 227.77C320.082 224.187 321.803 206.621 321.803 206.621L301.66 203.598Z" fill="url(#paint26_linear_1001_2313)"/>
<path d="M307.124 179.166C304.826 181.455 302.797 185.195 301.857 191.003C300.531 199.258 299.852 214.078 299.852 214.078C308.206 217.047 317.28 217.337 325.807 214.906C325.807 214.906 325.388 195.762 324.599 188.746C323.517 179.269 312.849 173.485 307.124 179.166Z" fill="#BC80F4"/>
<path d="M345.666 241.879C345.666 241.879 335.243 267.171 336.609 275.252C337.73 281.857 378.681 315.538 378.681 315.538C382.858 314.023 394.6 302.241 394.6 294.144L364.175 269.081L380.165 239.457L356.673 235.377" fill="#121D30"/>
<path d="M365.54 251.081C360.976 255.161 344.094 263.044 337.635 265.79C338.846 260.946 340.309 256.168 342.017 251.475C352.551 249.779 369.883 247.238 365.54 251.081Z" fill="black"/>
<path d="M338.006 227.059L367.333 209.651C367.333 209.651 380.386 218.726 381.271 230.168C381.271 230.524 381.318 230.879 381.326 231.234C381.681 241.138 376.683 247.94 367.333 251.254L327.378 263.012L319.442 308.167C314.562 312.799 297.617 311.805 291.884 306.407C291.884 306.407 301.359 255.958 303.349 250.007C305.339 244.057 338.006 227.059 338.006 227.059Z" fill="#121D30"/>
<path style="mix-blend-mode:screen" opacity="0.5" d="M362.84 230.437C362.477 234.745 347.268 241.658 328.933 249.597C323.405 251.964 318.668 254.064 317.499 254.861C315.28 256.51 309.903 283.909 305.52 311.032C304.952 310.992 304.367 310.937 303.799 310.866C306.563 293.742 313.022 255.926 316.512 253.456C317.791 252.548 322.174 250.654 328.246 248.019C339.632 243.095 360.811 233.925 361.111 230.295C361.442 226.349 357.913 219.902 355.812 216.485L357.305 215.569C359.508 219.191 363.211 225.97 362.84 230.437Z" fill="white"/>
<path d="M327.37 263.028C327.37 263.028 323.699 263.904 323.375 264.109C323.051 264.315 325.349 265.814 326.194 269.689L327.37 263.028Z" fill="black"/>
<path d="M364.175 269.081C364.175 269.081 360.937 266.635 360.89 266.508C360.843 266.382 365.288 265.088 367.207 263.462L364.175 269.081Z" fill="black"/>
<path d="M405.236 302.509C405.236 302.509 405.923 301.886 408.489 302.185C411.056 302.485 415.596 306.336 418.249 308.98C420.334 311.055 421.858 312.87 421.858 312.87L409.421 328.969H381.634C381.634 328.969 380.268 324.139 382.06 320.967C385.756 314.441 394.6 316.114 394.6 316.114L392.649 314.401C392.333 314.125 392.523 313.375 393.336 312.452C394.604 311.008 396.272 309.972 398.129 309.477C399.118 309.294 400.127 309.238 401.13 309.311C401.873 309.225 402.591 308.993 403.245 308.629C403.898 308.265 404.472 307.775 404.936 307.189C406.215 305.318 406.065 303.488 405.236 302.509Z" fill="url(#paint27_linear_1001_2313)"/>
<path style="mix-blend-mode:multiply" d="M421.874 312.87L409.429 328.961H381.634C381.266 327.534 381.101 326.062 381.144 324.589C381.157 324.254 381.297 323.936 381.536 323.701C381.776 323.466 382.096 323.332 382.432 323.326C384.264 323.326 386.38 323.326 386.861 323.326C387.762 323.413 389.42 324.952 389.42 324.952H406.729L418.747 309.477C420.579 311.324 421.874 312.87 421.874 312.87Z" fill="url(#paint28_linear_1001_2313)"/>
<path d="M394.599 316.114C397.352 316.23 400.076 316.713 402.701 317.55C399.991 315.463 396.579 314.505 393.178 314.875L394.599 316.114Z" fill="black"/>
<path d="M289.16 309.887C289.22 309.773 289.306 309.676 289.412 309.603C289.518 309.53 289.64 309.484 289.768 309.469C290.837 309.389 291.911 309.526 292.926 309.872C294.506 310.495 296.172 314.007 298.272 315.396C300.373 316.784 305.853 315.317 307.227 313.991C307.227 313.991 308.577 314.685 309.177 317.029C309.777 319.373 309.619 329 309.619 329H267.05C267.05 329 264.973 320.58 272.301 316.169C276.684 313.533 287.178 313.762 287.178 313.762L289.16 309.887Z" fill="url(#paint29_linear_1001_2313)"/>
<path style="mix-blend-mode:multiply" d="M309.69 328.961H267.05C266.595 326.724 266.711 324.409 267.389 322.229H268.242L269.158 322.34C269.679 322.403 270.232 323.263 270.603 323.973C270.753 324.265 270.979 324.511 271.257 324.684C271.535 324.858 271.855 324.953 272.182 324.96H309.69C309.69 327.177 309.69 328.961 309.69 328.961Z" fill="url(#paint30_linear_1001_2313)"/>
<path d="M287.162 313.73C288.082 313.703 288.998 313.85 289.863 314.164C289.663 313.755 289.365 313.401 288.996 313.134C288.627 312.867 288.198 312.695 287.746 312.634L287.162 313.73Z" fill="black"/>
<path d="M310.891 161.521C315.628 156.289 317.097 148.95 313.86 144.058C310.172 138.534 300.025 136.324 295.177 141.264C295.177 141.264 288.07 147.972 289.436 161.166C289.981 166.461 294.458 168.663 299.82 167.755L306.611 175.947C306.611 175.947 315.012 172.443 316.023 164.007C314.156 163.55 312.406 162.703 310.891 161.521Z" fill="url(#paint31_linear_1001_2313)"/>
<path d="M299.819 167.755C299.819 167.755 304.265 166.903 306.689 164.204C306.294 166.303 303.989 169.436 302.291 170.73L299.819 167.755Z" fill="black"/>
<path d="M312.367 162.539C311.842 162.25 311.347 161.909 310.89 161.521L310.48 160.33C311.988 158.751 312.951 156.321 311.569 154.806C310.188 153.29 307.937 154.143 307.084 155.674C306.573 155.303 306.154 154.82 305.86 154.261C304.739 152.162 305.86 149.226 305.86 149.226C305.86 149.226 302.994 150.142 298.169 147.83C293.345 145.517 292.215 142.59 292.215 142.59C288.725 136.853 298.383 135.314 298.383 135.314C298.383 135.314 296.701 134.264 298.098 133.223C299.496 132.181 304.415 130.855 310.614 133.846C318.25 137.484 317.271 143.979 317.271 143.979C325.909 150.521 312.367 162.539 312.367 162.539Z" fill="black"/>
<path d="M325.925 134.02C325.709 133.792 325.431 133.634 325.126 133.565C324.82 133.496 324.501 133.519 324.209 133.632C323.917 133.745 323.665 133.942 323.485 134.198C323.305 134.454 323.205 134.758 323.199 135.071C323.192 135.384 323.278 135.691 323.447 135.955C323.616 136.219 323.86 136.426 324.147 136.551C324.434 136.676 324.752 136.713 325.06 136.657C325.368 136.601 325.652 136.455 325.877 136.237C326.175 135.948 326.348 135.553 326.356 135.138C326.365 134.723 326.21 134.321 325.925 134.02Z" fill="black"/>
<path d="M347.514 122.711C347.592 121.757 347.507 120.796 347.261 119.87C346.83 118.311 345.933 116.92 344.69 115.883C343.447 114.847 341.917 114.214 340.304 114.07C338.401 113.823 336.472 114.278 334.88 115.349C334.54 115.585 334.221 115.849 333.924 116.138C333.087 116.963 332.447 117.966 332.053 119.073C332.005 119.2 331.974 119.31 331.934 119.436C331.934 119.436 331.247 121.449 331.729 122.498C331.806 122.709 331.924 122.902 332.076 123.066C332.366 123.364 332.761 123.536 333.176 123.545C333.591 123.554 333.994 123.399 334.295 123.114C334.342 123.067 334.384 123.017 334.422 122.964L334.516 122.845C334.729 122.509 334.852 122.123 334.872 121.725C334.886 121.102 335.023 120.487 335.275 119.917C335.527 119.347 335.889 118.832 336.34 118.403C336.802 117.959 337.357 117.626 337.966 117.428C338.575 117.23 339.22 117.172 339.854 117.258C341.026 117.352 342.121 117.878 342.926 118.734C343.389 119.208 343.742 119.779 343.959 120.405C344.176 121.031 344.252 121.697 344.181 122.356C344.117 123.528 343.608 124.631 342.76 125.442C341.505 126.641 339.562 127.257 336.933 127.304H336.214C334.899 127.21 333.578 127.231 332.266 127.367C330.872 127.66 329.592 128.348 328.578 129.348L328.128 129.774L328.065 129.845C327.823 130.143 327.698 130.519 327.713 130.903C327.729 131.287 327.884 131.652 328.149 131.93C328.414 132.207 328.772 132.379 329.155 132.412C329.538 132.445 329.919 132.338 330.229 132.11L331.018 131.321C331.441 130.953 331.932 130.671 332.463 130.492H332.574C333.932 130.344 335.298 130.275 336.664 130.287C337.455 130.312 338.247 130.281 339.033 130.192C341.702 129.887 343.705 129.098 345.042 127.825C346.472 126.486 347.353 124.663 347.514 122.711Z" fill="black"/>
<path d="M307.056 121.67C307.198 121.171 306.907 120.651 306.408 120.51C305.909 120.369 305.389 120.659 305.248 121.158C305.107 121.657 305.397 122.176 305.896 122.317C306.396 122.459 306.915 122.169 307.056 121.67Z" fill="black"/>
<path d="M311.617 106.857C311.28 106.389 310.863 105.983 310.385 105.658C309.737 105.243 309.001 104.986 308.236 104.907C307.471 104.828 306.697 104.929 305.978 105.202C305.259 105.475 304.614 105.912 304.094 106.479C303.575 107.047 303.195 107.727 302.986 108.467C302.926 108.709 302.881 108.954 302.852 109.201C302.797 109.905 302.902 110.612 303.16 111.269C303.184 111.342 303.213 111.413 303.247 111.482C303.247 111.482 303.729 112.665 304.36 112.957C304.476 113.026 304.605 113.067 304.739 113.076C304.862 113.089 304.987 113.077 305.105 113.042C305.224 113.006 305.334 112.947 305.43 112.869C305.525 112.79 305.604 112.693 305.662 112.584C305.72 112.474 305.755 112.355 305.766 112.231C305.77 112.192 305.77 112.152 305.766 112.113C305.77 112.084 305.77 112.055 305.766 112.026C305.733 111.789 305.641 111.563 305.497 111.371C305.017 110.789 304.787 110.04 304.858 109.288C304.892 108.905 305.013 108.535 305.211 108.206C305.41 107.876 305.68 107.596 306.003 107.386C306.574 106.968 307.28 106.777 307.985 106.85C308.383 106.884 308.768 107.006 309.113 107.207C309.458 107.407 309.755 107.681 309.982 108.01C310.412 108.57 310.613 109.272 310.543 109.975C310.322 111.23 309.637 112.357 308.624 113.131L308.301 113.415C307.657 113.886 307.057 114.415 306.508 114.993C305.981 115.677 305.666 116.5 305.6 117.361V117.74V117.795C305.578 118.044 305.655 118.291 305.815 118.483C305.975 118.675 306.204 118.797 306.453 118.821C306.576 118.834 306.7 118.822 306.819 118.787C306.937 118.751 307.048 118.692 307.143 118.614C307.239 118.535 307.318 118.438 307.375 118.329C307.433 118.219 307.468 118.1 307.479 117.976L307.542 117.321C307.587 116.986 307.7 116.664 307.874 116.374L307.914 116.319C308.477 115.721 309.072 115.155 309.698 114.623C310.073 114.321 310.424 113.991 310.748 113.636C311.709 112.719 312.344 111.514 312.557 110.203C312.679 109.009 312.343 107.813 311.617 106.857Z" fill="black"/>
<path opacity="0.5" d="M360.906 34.0672C356.209 34.0578 351.615 35.4413 347.705 38.0425C343.795 40.6437 340.745 44.3457 338.942 48.6799C337.138 53.014 336.662 57.7855 337.573 62.3904C338.484 66.9952 340.742 71.2264 344.06 74.5484C347.379 77.8703 351.609 80.1337 356.215 81.0519C360.821 81.9702 365.597 81.502 369.937 79.7068C374.276 77.9116 377.986 74.8699 380.595 70.9669C383.205 67.0638 384.597 62.4749 384.595 57.7808C384.595 51.4984 382.1 45.4727 377.659 41.0267C373.218 36.5806 367.192 34.0776 360.906 34.0672ZM360.906 78.188C356.867 78.1896 352.918 76.994 349.559 74.7526C346.2 72.5112 343.581 69.3246 342.035 65.5958C340.488 61.867 340.082 57.7636 340.869 53.8044C341.656 49.8453 343.601 46.2084 346.456 43.3536C349.312 40.4988 352.95 38.5544 356.911 37.7664C360.873 36.9783 364.979 37.382 368.711 38.9263C372.442 40.4707 375.632 43.0863 377.876 46.4424C380.12 49.7985 381.318 53.7444 381.318 57.7808C381.321 60.4621 380.795 63.1176 379.771 65.5958C378.747 68.0739 377.244 70.326 375.348 72.2234C373.453 74.1208 371.201 75.6262 368.723 76.6537C366.245 77.6812 363.589 78.2106 360.906 78.2117V78.188Z" fill="url(#paint32_linear_1001_2313)"/>
<path opacity="0.5" d="M363.386 57.8045C363.387 58.2949 363.243 58.7748 362.972 59.1833C362.7 59.5918 362.313 59.9106 361.861 60.0994C361.408 60.2881 360.909 60.3383 360.427 60.2436C359.946 60.1489 359.503 59.9135 359.156 59.5673C358.808 59.2211 358.571 58.7796 358.475 58.2987C358.379 57.8178 358.427 57.3192 358.615 56.866C358.802 56.4127 359.12 56.0253 359.528 55.7526C359.936 55.48 360.415 55.3345 360.906 55.3345C361.562 55.3345 362.192 55.5945 362.657 56.0574C363.121 56.5204 363.384 57.1487 363.386 57.8045Z" fill="url(#paint33_linear_1001_2313)"/>
<path d="M360.898 58.9566C361.535 58.9566 362.051 58.4408 362.051 57.8045C362.051 57.1682 361.535 56.6523 360.898 56.6523C360.261 56.6523 359.745 57.1682 359.745 57.8045C359.745 58.4408 360.261 58.9566 360.898 58.9566Z" fill="black"/>
<path d="M360.897 42.874C360.631 42.8719 360.376 42.7646 360.188 42.5753C360 42.3861 359.895 42.1304 359.895 41.8639V39.3228C359.894 39.1906 359.919 39.0594 359.969 38.9369C360.019 38.8144 360.092 38.703 360.185 38.6091C360.279 38.5152 360.39 38.4406 360.512 38.3898C360.634 38.3389 360.765 38.3127 360.897 38.3127C361.165 38.3127 361.423 38.4192 361.612 38.6086C361.802 38.798 361.908 39.055 361.908 39.3228V41.8639C361.908 42.1318 361.802 42.3887 361.612 42.5781C361.423 42.7676 361.165 42.874 360.897 42.874Z" fill="black"/>
<path d="M375.846 57.8045C375.846 57.6722 375.872 57.5412 375.923 57.4191C375.974 57.297 376.048 57.1862 376.142 57.093C376.236 56.9998 376.348 56.9262 376.47 56.8763C376.593 56.8264 376.724 56.8012 376.856 56.8023H379.399C379.531 56.8012 379.663 56.8264 379.785 56.8763C379.908 56.9262 380.019 56.9998 380.113 57.093C380.207 57.1862 380.282 57.297 380.333 57.4191C380.384 57.5412 380.41 57.6722 380.41 57.8045C380.41 58.0724 380.303 58.3293 380.114 58.5187C379.924 58.7082 379.667 58.8146 379.399 58.8146H376.856C376.588 58.8146 376.331 58.7082 376.142 58.5187C375.952 58.3293 375.846 58.0724 375.846 57.8045Z" fill="black"/>
<path d="M360.897 72.735C361.165 72.735 361.423 72.8415 361.612 73.0309C361.802 73.2203 361.908 73.4772 361.908 73.7451V76.2862C361.908 76.5541 361.802 76.811 361.612 77.0004C361.423 77.1898 361.165 77.2963 360.897 77.2963C360.765 77.2963 360.634 77.2701 360.512 77.2192C360.39 77.1684 360.279 77.0939 360.185 76.9999C360.092 76.906 360.019 76.7946 359.969 76.6721C359.919 76.5496 359.894 76.4185 359.895 76.2862V73.7451C359.894 73.6129 359.919 73.4817 359.969 73.3592C360.019 73.2367 360.092 73.1253 360.185 73.0314C360.279 72.9375 360.39 72.8629 360.512 72.8121C360.634 72.7612 360.765 72.735 360.897 72.735Z" fill="black"/>
<path d="M345.958 57.8045C345.958 58.0724 345.851 58.3293 345.662 58.5187C345.472 58.7082 345.215 58.8146 344.947 58.8146H342.404C342.136 58.8146 341.879 58.7082 341.69 58.5187C341.5 58.3293 341.394 58.0724 341.394 57.8045C341.394 57.6722 341.42 57.5412 341.471 57.4191C341.522 57.297 341.596 57.1862 341.69 57.093C341.784 56.9998 341.896 56.9262 342.018 56.8763C342.141 56.8264 342.272 56.8012 342.404 56.8023H344.947C345.079 56.8012 345.211 56.8264 345.333 56.8763C345.456 56.9262 345.567 56.9998 345.661 57.093C345.755 57.1862 345.83 57.297 345.881 57.4191C345.931 57.5412 345.958 57.6722 345.958 57.8045Z" fill="black"/>
<path d="M349.148 44.0577L360.898 57.8045L353.081 65.2619" stroke="black" stroke-linecap="round" stroke-linejoin="round"/>
<path d="M87.3527 257.512L90.8271 243.821L77.1269 247.293L82.22 249.637L71.1572 255.484L79.1562 263.478L85.0074 252.422L87.3527 257.512Z" fill="black"/>
</g>
<defs>
<linearGradient id="paint0_linear_1001_2313" x1="1.19496" y1="79.8689" x2="47.1342" y2="120.696" gradientUnits="userSpaceOnUse">
<stop stop-color="#8AB9FD"/>
<stop offset="1" stop-color="#0056E9"/>
</linearGradient>
<linearGradient id="paint1_linear_1001_2313" x1="376.674" y1="165.175" x2="404.581" y2="189.979" gradientUnits="userSpaceOnUse">
<stop stop-color="#8AB9FD"/>
<stop offset="1" stop-color="#0056E9"/>
</linearGradient>
<linearGradient id="paint2_linear_1001_2313" x1="222.08" y1="-1.60197" x2="297.543" y2="65.4589" gradientUnits="userSpaceOnUse">
<stop stop-color="#8AB9FD"/>
<stop offset="1" stop-color="#0056E9"/>
</linearGradient>
<linearGradient id="paint3_linear_1001_2313" x1="70.8333" y1="139.607" x2="81.1632" y2="149.935" gradientUnits="userSpaceOnUse">
<stop stop-color="#E4816F"/>
<stop offset="1" stop-color="#E25E52"/>
</linearGradient>
<linearGradient id="paint4_linear_1001_2313" x1="401.461" y1="249.029" x2="408.027" y2="255.599" gradientUnits="userSpaceOnUse">
<stop stop-color="#E4816F"/>
<stop offset="1" stop-color="#E25E52"/>
</linearGradient>
<linearGradient id="paint5_linear_1001_2313" x1="139.374" y1="310.029" x2="145.939" y2="316.599" gradientUnits="userSpaceOnUse">
<stop stop-color="#E4816F"/>
<stop offset="1" stop-color="#E25E52"/>
</linearGradient>
<linearGradient id="paint6_linear_1001_2313" x1="362.73" y1="151.444" x2="371.308" y2="160.027" gradientUnits="userSpaceOnUse">
<stop stop-color="#8AB9FD"/>
<stop offset="1" stop-color="#0056E9"/>
</linearGradient>
<linearGradient id="paint7_linear_1001_2313" x1="316.07" y1="77.241" x2="328.207" y2="89.3856" gradientUnits="userSpaceOnUse">
<stop stop-color="#8AB9FD"/>
<stop offset="1" stop-color="#0056E9"/>
</linearGradient>
<linearGradient id="paint8_linear_1001_2313" x1="81.2623" y1="254.992" x2="138.914" y2="264.81" gradientUnits="userSpaceOnUse">
<stop stop-color="#05E389"/>
<stop offset="1" stop-color="#009A62"/>
</linearGradient>
<linearGradient id="paint9_linear_1001_2313" x1="132.345" y1="265.416" x2="142.166" y2="266.865" gradientUnits="userSpaceOnUse">
<stop stop-color="#05E389"/>
<stop offset="1" stop-color="#009A62"/>
</linearGradient>
<linearGradient id="paint10_linear_1001_2313" x1="143.358" y1="132.078" x2="204.465" y2="192.777" gradientUnits="userSpaceOnUse">
<stop stop-color="#8AB9FD"/>
<stop offset="1" stop-color="#0056E9"/>
</linearGradient>
<linearGradient id="paint11_linear_1001_2313" x1="160.559" y1="124.114" x2="171.559" y2="135.04" gradientUnits="userSpaceOnUse">
<stop stop-color="#8AB9FD"/>
<stop offset="1" stop-color="#0056E9"/>
</linearGradient>
<linearGradient id="paint12_linear_1001_2313" x1="45.1918" y1="274.12" x2="61.5438" y2="333.766" gradientUnits="userSpaceOnUse">
<stop stop-color="#8AB9FD"/>
<stop offset="1" stop-color="#0056E9"/>
</linearGradient>
<linearGradient id="paint13_linear_1001_2313" x1="58.7589" y1="275.31" x2="61.7009" y2="286.042" gradientUnits="userSpaceOnUse">
<stop stop-color="#8AB9FD"/>
<stop offset="1" stop-color="#0056E9"/>
</linearGradient>
<linearGradient id="paint14_linear_1001_2313" x1="254.542" y1="278.759" x2="182.109" y2="151.897" gradientUnits="userSpaceOnUse">
<stop stop-color="#E6832C"/>
<stop offset="1" stop-color="#E9A347"/>
</linearGradient>
<linearGradient id="paint15_linear_1001_2313" x1="206.761" y1="325.031" x2="206.761" y2="284.004" gradientUnits="userSpaceOnUse">
<stop stop-color="#53B0B1"/>
<stop offset="1" stop-color="#6ACAD8"/>
</linearGradient>
<linearGradient id="paint16_linear_1001_2313" x1="330.599" y1="326.538" x2="330.599" y2="303.535" gradientUnits="userSpaceOnUse">
<stop stop-color="#53B0B1"/>
<stop offset="1" stop-color="#6ACAD8"/>
</linearGradient>
<linearGradient id="paint17_linear_1001_2313" x1="52.0871" y1="241.114" x2="279.692" y2="241.114" gradientUnits="userSpaceOnUse">
<stop stop-color="#8AB9FD"/>
<stop offset="1" stop-color="#0056E9"/>
</linearGradient>
<linearGradient id="paint18_linear_1001_2313" x1="52.0872" y1="168.379" x2="279.684" y2="168.379" gradientUnits="userSpaceOnUse">
<stop stop-color="#8AB9FD"/>
<stop offset="1" stop-color="#0056E9"/>
</linearGradient>
<linearGradient id="paint19_linear_1001_2313" x1="52.0861" y1="120.439" x2="279.684" y2="120.439" gradientUnits="userSpaceOnUse">
<stop stop-color="#8AB9FD"/>
<stop offset="1" stop-color="#0056E9"/>
</linearGradient>
<linearGradient id="paint20_linear_1001_2313" x1="52.0873" y1="80.9894" x2="279.684" y2="80.9894" gradientUnits="userSpaceOnUse">
<stop stop-color="#8AB9FD"/>
<stop offset="1" stop-color="#0056E9"/>
</linearGradient>
<linearGradient id="paint21_linear_1001_2313" x1="52.0778" y1="94.973" x2="279.684" y2="94.973" gradientUnits="userSpaceOnUse">
<stop stop-color="#8AB9FD"/>
<stop offset="1" stop-color="#0056E9"/>
</linearGradient>
<linearGradient id="paint22_linear_1001_2313" x1="277.797" y1="116.595" x2="312.322" y2="167.831" gradientUnits="userSpaceOnUse">
<stop stop-color="#FFCBCA"/>
<stop offset="1" stop-color="#E994A8"/>
</linearGradient>
<linearGradient id="paint23_linear_1001_2313" x1="277.339" y1="115.325" x2="288.722" y2="137.498" gradientUnits="userSpaceOnUse">
<stop stop-color="#FFCBCA" stop-opacity="0.6"/>
<stop offset="1" stop-color="#E994A8"/>
</linearGradient>
<linearGradient id="paint24_linear_1001_2313" x1="406.87" y1="316.035" x2="387.614" y2="298.48" gradientUnits="userSpaceOnUse">
<stop stop-color="#FFCBCA"/>
<stop offset="1" stop-color="#E994A8"/>
</linearGradient>
<linearGradient id="paint25_linear_1001_2313" x1="292.804" y1="323.902" x2="301.226" y2="299.163" gradientUnits="userSpaceOnUse">
<stop stop-color="#FFCBCA"/>
<stop offset="1" stop-color="#E994A8"/>
</linearGradient>
<linearGradient id="paint26_linear_1001_2313" x1="260.906" y1="293.095" x2="315.966" y2="208.033" gradientUnits="userSpaceOnUse">
<stop stop-color="#FFCBCA"/>
<stop offset="1" stop-color="#E994A8"/>
</linearGradient>
<linearGradient id="paint27_linear_1001_2313" x1="401.856" y1="297.143" x2="401.415" y2="324.905" gradientUnits="userSpaceOnUse">
<stop stop-color="#E4816F"/>
<stop offset="1" stop-color="#E25E52"/>
</linearGradient>
<linearGradient id="paint28_linear_1001_2313" x1="381.137" y1="319.207" x2="421.874" y2="319.207" gradientUnits="userSpaceOnUse">
<stop stop-color="#E4816F"/>
<stop offset="1" stop-color="#E25E52"/>
</linearGradient>
<linearGradient id="paint29_linear_1001_2313" x1="288.228" y1="302.896" x2="288.228" y2="326.444" gradientUnits="userSpaceOnUse">
<stop stop-color="#E4816F"/>
<stop offset="1" stop-color="#E25E52"/>
</linearGradient>
<linearGradient id="paint30_linear_1001_2313" x1="288.228" y1="319.973" x2="288.228" y2="328.093" gradientUnits="userSpaceOnUse">
<stop stop-color="#E4816F"/>
<stop offset="1" stop-color="#E25E52"/>
</linearGradient>
<linearGradient id="paint31_linear_1001_2313" x1="294.735" y1="142.416" x2="320.461" y2="183.482" gradientUnits="userSpaceOnUse">
<stop stop-color="#FFCBCA"/>
<stop offset="1" stop-color="#E994A8"/>
</linearGradient>
<linearGradient id="paint32_linear_1001_2313" x1="344.805" y1="41.7218" x2="377.949" y2="74.8865" gradientUnits="userSpaceOnUse">
<stop stop-color="#8AB9FD"/>
<stop offset="1" stop-color="#0056E9"/>
</linearGradient>
<linearGradient id="paint33_linear_1001_2313" x1="344.806" y1="41.7218" x2="377.949" y2="74.8865" gradientUnits="userSpaceOnUse">
<stop stop-color="#8AB9FD"/>
<stop offset="1" stop-color="#0056E9"/>
</linearGradient>
<clipPath id="clip0_1001_2313">
<rect width="423" height="336" fill="white" transform="translate(0.5)"/>
</clipPath>
</defs>
</svg>
